<?xml version="1.0" encoding="UTF-8" standalone="no"?>
<svg xmlns:rdf="http://www.w3.org/1999/02/22-rdf-syntax-ns#" xmlns="http://www.w3.org/2000/svg" enable-background="new 0 0 200 200" xml:space="preserve" height="158.67" viewBox="0 0 158.675 158.674" width="158.68" version="1.0" y="0px" x="0px" xmlns:cc="http://creativecommons.org/ns#" xmlns:dc="http://purl.org/dc/elements/1.1/"><g style=""><circle d="m 178.536,99.164001 c 0,43.547649 -35.30235,78.849999 -78.850003,78.849999 -43.547652,0 -78.849998,-35.30235 -78.849998,-78.849999 0,-43.547651 35.302346,-78.849998 78.849998,-78.849998 43.547653,0 78.850003,35.302347 78.850003,78.849998 z" cx="99.686" transform="translate(-20.475,-19.808)" cy="99.164" r="78.85" fill="#fff"/><path fill="#c00" d="m153.15 79.175c0-40.729-33.02-73.748-73.75-73.748-40.727 0-73.747 33.018-73.747 73.748s33.021 73.748 73.747 73.748c40.732-0.001 73.748-33.018 73.748-73.748z"/><g fill="#fff"><circle d="M 154.217,98.983002 C 154.217,128.99471 129.8877,153.324 99.875999,153.324 69.864294,153.324 45.535,128.99471 45.535,98.983002 c 0,-30.011706 24.329294,-54.341 54.340999,-54.341 30.011701,0 54.341001,24.329294 54.341001,54.341 z" cx="99.876" transform="translate(-20.475,-19.808)" cy="98.983" r="54.341"/><g transform="translate(-20.475,-19.808)"><path d="m60.506 146.96-0.721-0.66 1.139-1.535 0.03-0.35c-0.187-0.508-0.562-1.031-1.107-1.531-1.183-1.084-2.399-1.078-3.181-0.223-0.926 1.01-0.418 1.877 0.383 3.664 0.818 1.826 1.113 2.924 0.028 4.107-1.261 1.375-3.229 1.346-4.954-0.242-0.674-0.611-1.255-1.347-1.762-2.236l1.729-1.889 0.634 0.582-0.875 1.321-0.01 0.375c0.15 0.449 0.437 0.871 0.862 1.263 1.035 0.949 2.194 0.934 3.009 0.045 0.748-0.818 0.439-1.66-0.245-3.16-0.386-0.826-0.868-1.623-0.924-2.684-0.03-0.681 0.2-1.298 0.69-1.834 1.316-1.438 3.451-1.345 5.4 0.44 0.877 0.803 1.499 1.641 1.836 2.399l-1.961 2.148z"/><path d="m54.92 138.09-0.635-0.701-0.355-0.084-7.254 5.502-0.016 0.363 0.488 0.811-0.525 0.4-4.781-6.307 1.924-1.459 0.557 0.74-0.98 1.032-0.055 0.334 2.304 3.041 3.331-2.526-1.636-2.158-0.325-0.047-1.061 0.6-0.471-0.621 2.897-2.195 0.47 0.619-0.848 0.851-0.058 0.332 1.637 2.163 3.688-2.799-2.678-3.528-0.35-0.023-1.5 0.785-0.521-0.685 2.146-1.627 5.143 6.779-0.536 0.408z"/><path d="m36.715 129.24 7.544-8.117-0.26-0.977 0.61-0.299 1.649 3.366-0.606 0.3-0.525-0.884-0.26-0.002-2.312 2.459 1.719 3.5 3.351-0.336 0.135-0.25-0.396-1 0.604-0.297 1.428 2.905-0.609 0.298-0.599-0.773-10.992 1.085-0.481-0.978zm6.752-0.568-1.469-2.998-3.362 3.543 4.831-0.545z"/><path d="m43.549 118.54-0.357-0.982-0.297-0.209-8.779 2.418-0.149 0.336 0.184 1.027-0.636 0.176-1.073-3.887 0.638-0.176 0.345 0.881 0.298 0.209 9.002-2.479-0.992-3.603-0.316-0.154-1.988 0.259-0.227-0.83 2.898-0.799 2.104 7.631-0.655 0.182z"/><path d="m31.109 96.971c1.05-1.128 2.525-1.757 4.324-1.795 1.223-0.029 2.32 0.229 3.291 0.771 1.604 0.891 2.598 2.521 2.642 4.438 0.03 1.404-0.44 2.689-1.342 3.664-1.067 1.148-2.558 1.76-4.358 1.799s-3.301-0.508-4.397-1.59c-0.979-0.971-1.503-2.199-1.533-3.621-0.031-1.421 0.438-2.652 1.373-3.666zm4.521 7.158c3.069-0.066 4.907-1.576 4.859-3.726-0.046-2.129-1.945-3.56-5.015-3.49-3.076 0.063-4.894 1.576-4.849 3.707 0.05 2.146 1.898 3.577 5.005 3.509z"/><path d="m40.656 92.447 0.084-0.94-0.18-0.317-8.961-1.61-0.275 0.236-0.291 1.039-0.649-0.116 1.401-7.807 2.537 0.454-0.162 0.894-1.589-0.033-0.281 0.169-0.655 3.659 4.276 0.768 0.479-2.667-0.187-0.269-1.158-0.376 0.139-0.765 3.594 0.646-0.137 0.764-1.219-0.05-0.284 0.183-0.478 2.668 4.163 0.749 0.279-0.236 0.288-1.141 0.666 0.119-0.736 4.1-0.664-0.121z"/><path d="m37.779 66.819 2.323 1.027-0.364 0.829-1.498-0.407-0.322 0.111-1.027 2.328 8.539 3.773 0.334-0.18 0.523-0.979 0.619 0.274-1.741 3.945-0.62-0.274 0.373-1.046-0.096-0.366-8.541-3.772-1.027 2.328 0.134 0.313 1.313 0.832-0.367 0.832-2.33-1.028 3.775-8.54z"/><path d="m48.41 69.126 0.468-0.822-0.03-0.362-7.496-5.168-0.35 0.1-0.618 0.72-0.543-0.374 4.494-6.52 1.985 1.37-0.525 0.763-1.289-0.605-0.334 0.047-2.168 3.143 3.442 2.375 1.539-2.232-0.059-0.32-0.901-0.822 0.439-0.639 2.996 2.063-0.44 0.636-1.071-0.54-0.337 0.051-1.539 2.231 3.811 2.626 2.514-3.646-0.087-0.34-1.216-1.179 0.488-0.707 2.217 1.528-4.831 7.007-0.559-0.384z"/><path d="m50.027 50.323 0.468 0.471-0.638 0.768 0.046 0.235 3.934 0.896-0.679-4.023-0.257-0.049-0.786 0.57-0.467-0.471 2.396-2.371 0.467 0.47-0.635 0.861 0.885 5.193 5.846 1.351 0.938-0.649 0.475 0.482-2.969 2.94-0.479-0.482 0.707-0.86-0.081-0.247-4.294-1.027 0.748 4.468 0.279 0.142 0.856-0.707 0.479 0.482-2.505 2.475-0.477-0.48 0.627-0.922-0.908-5.635-5.418-1.222-0.922 0.615-0.467-0.472 2.831-2.802z"/><path d="m61.205 40.987 9.048 6.394 0.935-0.386 0.379 0.563-3.117 2.086-0.377-0.563 0.803-0.639-0.03-0.258-2.744-1.961-3.239 2.168 0.777 3.277 0.266 0.1 0.938-0.528 0.377 0.563-2.691 1.801-0.38-0.564 0.688-0.697-2.539-10.748 0.906-0.608zm1.465 6.617 2.773-1.857-3.959-2.856 1.186 4.713z"/><path d="m72.221 43.742 0.898-0.378 0.922 1.673 0.307 0.175c0.537 0.045 1.166-0.078 1.85-0.367 1.479-0.622 1.979-1.729 1.531-2.796-0.529-1.265-1.531-1.166-3.492-1.183-1.997-0.02-3.117-0.209-3.741-1.688-0.724-1.72 0.126-3.493 2.288-4.406 0.838-0.352 1.748-0.574 2.77-0.664l0.995 2.36-0.794 0.333-0.836-1.35-0.341-0.164c-0.47-0.051-0.974 0.034-1.505 0.26-1.294 0.545-1.762 1.603-1.294 2.713 0.429 1.021 1.319 1.096 2.972 1.099 0.91-0.009 1.838-0.109 2.826 0.28 0.625 0.256 1.094 0.724 1.376 1.393 0.755 1.797-0.219 3.697-2.655 4.723-1.096 0.461-2.119 0.677-2.948 0.668l-1.129-2.681z"/><path d="m95.008 29.672 0.33 2.523-0.902 0.117-0.428-1.494-0.26-0.217-2.521 0.329 1.202 9.26 0.325 0.191 1.109-0.061 0.085 0.673-4.274 0.556-0.086-0.672 1.082-0.225 0.268-0.268-1.207-9.26-2.521 0.329-0.198 0.277-0.03 1.553-0.899 0.117-0.331-2.522 9.256-1.206z"/><path d="m98.557 39.96 0.947-0.03 0.29-0.215 0.513-9.092-0.271-0.247-0.933-0.152 0.038-0.66 7.902 0.442-0.136 2.409-0.923-0.051-0.155-1.416-0.214-0.26-3.813-0.214-0.234 4.175 2.705 0.152 0.244-0.22 0.231-1.194 0.776 0.043-0.203 3.629-0.776-0.043-0.096-1.197-0.218-0.26-2.707-0.152-0.258 4.621 4.422 0.246 0.244-0.25 0.377-1.652 0.854 0.047-0.146 2.69-8.5-0.474 0.04-0.675z"/><path d="m114.86 43.037c-1.058-0.267-1.931-0.728-2.563-1.329-1.467-1.413-2.054-3.537-1.521-5.637 0.845-3.333 3.633-4.996 6.965-4.151 0.947 0.239 1.961 0.683 3.037 1.348l-0.627 2.465-0.896-0.226 0.129-1.52-0.138-0.34c-0.521-0.422-1.063-0.713-1.689-0.87-2.386-0.606-4.378 0.732-5.102 3.601-0.774 3.043 0.357 5.238 2.951 5.896 0.451 0.114 0.935 0.167 1.451 0.146l0.319-0.191 0.804-1.689 0.896 0.227-0.642 2.531c-1.146 0.099-2.301 0.011-3.374-0.261z"/><path d="m129.14 36.34-0.295 0.592-0.961-0.37-0.355 0.081-1.747 3.486 5.081 2.549 1.744-3.487-0.144-0.331-0.872-0.549 0.297-0.592 3.59 1.803-0.297 0.588-0.887-0.332-0.354 0.08-4.084 8.139 0.146 0.334 0.808 0.495-0.307 0.606-3.59-1.801 0.307-0.605 0.951 0.385 0.357-0.08 1.99-3.973-5.078-2.55-1.996 3.973 0.147 0.332 0.88 0.534-0.304 0.605-3.591-1.802 0.306-0.604 0.877 0.348 0.356-0.08 4.083-8.137-0.149-0.334-0.794-0.511 0.293-0.591 3.592 1.799z"/><path d="m147.19 48.73-0.461 0.471-0.804-0.649-0.37-0.042-4.195 4.265c-1.578 1.602-1.707 2.936-0.197 4.419 1.482 1.46 2.827 1.32 4.4-0.281l4.117-4.183-0.017-0.432-0.604-0.802 0.465-0.472 2.482 2.445-0.463 0.471-0.813-0.589-0.42 0.004-4.218 4.288c-0.849 0.861-1.555 1.462-2.557 1.563-0.981 0.102-2.2-0.401-3.321-1.504-1.115-1.1-1.645-2.312-1.556-3.293 0.079-1.006 0.661-1.711 1.521-2.584l4.297-4.369-0.033-0.363-0.604-0.732 0.46-0.47 2.891 2.839z"/><path d="m146.06 62.556 0.659 0.774 0.427 0.079 7.531-4.872 0.033-0.378-0.488-0.942 0.555-0.358 1.688 2.608-0.35 0.227-4.043 9.326 6.523-4.219 0.086-0.412-0.412-0.912 0.558-0.359 1.885 2.914-0.558 0.359-0.662-0.753-0.412-0.087-8.376 5.42-0.597-0.915 4.461-10.384-6.938 4.486-0.102 0.42 0.427 0.905-0.567 0.368-1.895-2.928 0.567-0.367z"/><path d="m152.84 73.926 0.493 0.939 0.322 0.166 8.367-3.592 0.104-0.349-0.328-1.011 0.609-0.262 1.646 3.842-0.605 0.262-0.51-0.934-0.322-0.166-8.366 3.591-0.104 0.351 0.344 1.004-0.625 0.267-1.646-3.842 0.621-0.266z"/><path d="m166.28 80.317-0.641 0.164-0.334-0.902-0.271-0.121-7.3 5.071 8.81 0.839 0.185-0.217-0.157-1.019 0.642-0.162 0.813 3.185-0.641 0.164-0.445-0.943-10.932-1.135-0.283-1.104 9.033-6.313-0.072-1.074 0.644-0.163 0.949 3.73z"/><path d="m158.07 91.355 0.138 0.935 0.249 0.267 9.092-0.539 0.215-0.294 0.043-0.945 0.657-0.04 0.47 7.901-2.41 0.143-0.051-0.922 1.387-0.314 0.234-0.248-0.228-3.809-4.173 0.248 0.158 2.704 0.248 0.217 1.211 0.095 0.047 0.773-3.627 0.217-0.049-0.775 1.18-0.234 0.229-0.248-0.157-2.705-4.619 0.275 0.264 4.422 0.275 0.215 1.684 0.18 0.051 0.859-2.689 0.159-0.504-8.496 0.675-0.041z"/><path d="m168.3 107.8c-0.354 2.656-1.461 3.824-3.475 3.557-1.409-0.188-2.21-1.196-2.363-3.018-0.324 0.773-0.74 1.285-1.326 1.539-0.811 0.359-1.715 0.256-2.525 0.447-1.016 0.23-1.281 0.73-1.446 1.975-0.006 0.049-0.015 0.098-0.021 0.146l-0.623-0.084c-0.03-0.504-0.026-0.92 0.023-1.297 0.1-0.736 0.316-1.258 0.697-1.588 0.793-0.695 1.865-0.619 2.959-0.826 1.402-0.262 1.912-0.844 2.113-2.332 0.031-0.246 0.055-0.527 0.076-0.824l-3.9-0.52-0.266 0.246-0.207 0.922-0.672-0.09 0.521-3.896 0.673 0.088-0.044 0.947 0.191 0.309 9.025 1.205 0.268-0.25 0.224-0.92 0.655 0.088-0.557 4.176zm-5.121-2.199c-0.09 0.504-0.127 0.801-0.141 0.896-0.264 1.967 0.252 2.988 1.873 3.203 1.703 0.227 2.455-0.672 2.73-2.703l0.104-0.787-4.566-0.609z"/><path d="m158.92 115.4-0.313 0.924-1.864-0.42-0.334 0.113c-0.39 0.373-0.716 0.928-0.954 1.633-0.512 1.518-0.016 2.629 1.084 2.998 1.301 0.438 1.887-0.375 3.199-1.834 1.338-1.482 2.227-2.193 3.742-1.683 1.768 0.597 2.535 2.408 1.783 4.632-0.285 0.86-0.726 1.688-1.337 2.514l-2.426-0.818 0.274-0.814 1.565 0.269 0.345-0.146c0.354-0.316 0.621-0.75 0.808-1.3 0.448-1.329-0.032-2.383-1.177-2.768-1.051-0.355-1.695 0.266-2.793 1.498-0.596 0.688-1.133 1.448-2.078 1.932-0.606 0.302-1.27 0.343-1.959 0.106-1.85-0.622-2.62-2.61-1.778-5.116 0.381-1.127 0.901-2.035 1.455-2.647l2.758 0.927z"/><path d="m152.95 124.05-0.408 0.977 0.079 0.355 8.109 4.145 0.334-0.146 0.567-0.896 0.589 0.299-1.898 3.725-0.59-0.303 0.391-0.986-0.076-0.354-8.107-4.142-0.338 0.146-0.553 0.905-0.604-0.309 1.902-3.725 0.603 0.309z"/><path d="m153.05 143.43-2.066-1.488 0.533-0.737 1.381 0.713 0.338-0.045 1.488-2.063-7.576-5.459-0.362 0.107-0.716 0.852-0.549-0.396 2.521-3.5 0.553 0.396-0.584 0.947 0.016 0.375 7.576 5.457 1.485-2.066-0.067-0.332-1.108-1.084 0.532-0.737 2.063 1.487-5.458 7.573z"/><path d="m148.07 148.64-0.455-0.479 0.613-0.72-0.004-0.241-4.963-1.562 1.023 5.109 0.265 0.068 0.857-0.564 0.456 0.48-2.449 2.32-0.45-0.479 0.581-0.851-1.294-6.356-2.558-2.697-0.352 0.015-0.875 0.713-0.465-0.492 3.105-2.945 0.469 0.49-0.76 0.836-0.031 0.35 2.408 2.541 6.354 1.92 0.848-0.572 0.453 0.479-2.776 2.637z"/></g><polygon points="99.803 165.3 96.391 167.67 97.596 163.69 94.28 161.18 98.438 161.1 99.803 157.17 101.17 161.1 105.33 161.18 102.01 163.69 103.22 167.67" transform="translate(-20.475,-19.808)"/></g><path fill="#c00" d="m74.681 56.176v24.038c-0.68 0-21.395-0.006-22.074-0.008 0-0.682-0.007-21.099-0.007-21.652 1.653-0.35 11.148-2.268 22.081-2.378z"/><g style="" transform="translate(-20.475,-19.808)"><path fill="#c00" d="m104.6 76.062v23.941c0.682 0 21.396-0.006 22.074-0.008 0-0.682 0.005-21.002 0.005-21.555-1.652-0.35-11.144-2.268-22.079-2.378z"/></g><path fill="#fff" d="m103.28 65.73h-6.328c-0.115-0.363-1.879-5.951-1.879-5.951l-0.273 0.842s-1.537 4.748-1.651 5.109h-6.306s4.83 3.592 5.135 3.818c-0.12 0.359-2.008 6.096-2.008 6.096s4.791-3.521 5.101-3.747c0.31 0.226 5.099 3.743 5.099 3.743s-1.865-5.733-1.984-6.092c0.299-0.225 5.094-3.818 5.094-3.818z"/><polygon points="126.62 109.05 126.62 128.38 104.54 141.22 104.61 109.05" fill="#c00" transform="translate(-20.475,-19.808)"/><g style="" transform="translate(-20.475,-19.808)"><g style=""><g style=""><g style=""><g style=""><path fill="#fff" d="m114.83 115.44c0-0.392 0.314-0.697 0.695-0.697 0.385 0 0.697 0.307 0.697 0.697 0 0.381-0.313 0.692-0.697 0.692-0.38 0.002-0.695-0.311-0.695-0.692z"/></g></g></g><g style=""><path fill="#fff" d="m120.66 117.3c0.035-0.084 0.119-0.146 0.223-0.146 0.03 0 0.049 0.002 0.074 0.015 0.635 0.269 1.059 0.905 1 1.627-0.084 0.871-0.755 1.521-1.617 1.481l-12.201 0.006c1.07 1.843 2.735 3.298 4.705 4.104 0.861 0.353 1.916 0.572 3.018 0.572 1.059-0.063 2.068-0.336 2.879-0.72 1.013-0.473 1.935-1.122 2.723-1.907 0.089-0.086 0.225-0.229 0.309-0.32 0.518-0.549 0.916-1.297 1.125-1.959 0.08-0.274 0.155-0.582 0.17-0.881 0.041-1.002-0.346-1.903-1.027-2.487-0.545-0.423-1.348-0.642-2.034-0.373-0.226 0.084-0.409 0.233-0.565 0.416-0.155 0.192-0.229 0.465-0.137 0.721 0.133 0.359 0.535 0.549 0.901 0.418 0.242-0.094 0.362-0.311 0.454-0.567z"/></g><g style=""><g style=""><g style=""><path fill="#fff" d="m113.7 126.67c0-1.08 0.869-1.949 1.955-1.949 1.074 0 1.951 0.869 1.951 1.949h-3.906z"/></g></g></g></g><path fill="#fff" d="m110 117.44c-0.268-0.125-0.457-0.397-0.457-0.715 0-0.131 0.039-0.264 0.096-0.373l0.846-1.334c0.134-0.207 0.205-0.461 0.205-0.727-0.008-0.656-0.399-1.037-1.01-1.193 0.144 0.563-0.384 0.938-0.979 1.732-0.396 0.531-0.51 1.176-0.385 1.736 0.138 0.762 0.814 1.364 1.613 1.371 0.01 0-0.005 0 0 0 0.904-0.019 1.648-0.752 1.631-1.656-0.008-0.578-0.311-1.072-0.765-1.354 0.056 0.093 0.108 0.216 0.108 0.341 0.003 0.077-0.014 0.192-0.037 0.264-0.119 0.358-0.461 0.772-0.781 1.32-0.072 0.11-0.117 0.256-0.117 0.396 0.001 0.053 0.022 0.143 0.032 0.192z"/></g><g style="" transform="translate(-20.475,-19.808)"><g style=""><g style=""><g style=""><path fill="#fff" d="m84.063 93.182c0.539-0.924 1.67-1.41 2.639-1.355 1.271 0.072 2.218 0.265 3.576 0.453v-9.615c-1.358-0.184-2.305-0.641-3.576-0.713-0.969-0.053-2.1 0.549-2.639 1.474"/></g></g><g style=""><g style=""><path fill="#fff" d="m84.063 93.182c-0.546-0.924-1.676-1.41-2.639-1.355-1.275 0.072-2.084 0.265-3.445 0.453v-9.615c1.361-0.184 2.17-0.641 3.445-0.713 0.963-0.053 2.093 0.549 2.639 1.474"/></g></g><g style=""/></g></g><g style="" transform="translate(-20.475,-19.808)"><polygon points="72.925 109.04 72.925 128.46 95.02 141.03 94.957 109.04" fill="#c00"/></g><g style="" transform="translate(-20.475,-19.808)"><path fill="#fff" d="m85.457 117.19h1.202v-1.162h-0.095c-0.584 0-1.063-0.475-1.063-1.057 0-0.597 0.479-1.078 1.063-1.078h0.095v-1.099c-0.303 0-0.944 0.002-1.202 0.002-0.086 0.662-0.511 1.097-1.154 1.188v1.959c0.636 0.101 1.068 0.562 1.154 1.247zm-1.625-4.41c0-0.152-0.122-0.271-0.275-0.271h-0.26c-0.15 0-0.273 0.119-0.273 0.271v0.438h0.809l-0.001-0.438zm0 0.961h-0.809v2.564h0.809v-2.564zm0.228 10.779-0.228-0.033v-7.654h-0.809v7.654l-0.228 0.033c-1.526 0.203-2.635 1.125-2.635 2.19 0 1.236 1.471 2.246 3.276 2.246 1.81 0 3.285-1.01 3.285-2.246 0.002-1.068-1.12-1.99-2.661-2.19zm-0.622 3.627c-1.314 0-2.344-0.631-2.344-1.437 0-0.81 1.029-1.44 2.344-1.44s2.347 0.633 2.347 1.44c-0.001 0.807-1.033 1.437-2.347 1.437z"/></g><g style=""><path d="m0 79.336c0 43.747 35.592 79.338 79.342 79.338 43.744 0 79.333-35.592 79.333-79.338s-35.6-79.336-79.338-79.336c-43.751 0-79.342 35.59-79.342 79.336zm1.142 0c0-43.115 35.078-78.192 78.199-78.192 43.114 0 78.189 35.077 78.189 78.192 0 43.118-35.075 78.196-78.189 78.196-43.121 0-78.199-35.078-78.199-78.196z"/><path d="m25.552 99.144c0 40.948 33.315 74.262 74.265 74.262 40.951 0 74.264-33.314 74.264-74.262 0-40.946-33.313-74.259-74.264-74.259-40.95 0-74.265 33.313-74.265 74.259zm1.143 0c0-40.316 32.801-73.116 73.121-73.116 40.317 0 73.12 32.799 73.12 73.116 0 40.319-32.803 73.122-73.12 73.122-40.32 0-73.121-32.803-73.121-73.122z" transform="translate(-20.475,-19.808)"/><path d="m44.859 99.144c0 30.299 24.651 54.952 54.957 54.952 30.297 0 54.946-24.652 54.946-54.952 0-30.303-24.648-54.955-54.946-54.955-30.305 0-54.957 24.652-54.957 54.955zm1.144 0c0-29.673 24.139-53.812 53.813-53.812 29.668 0 53.805 24.139 53.805 53.812 0 29.67-24.137 53.811-53.805 53.811-29.674 0-53.813-24.141-53.813-53.811z" transform="translate(-20.475,-19.808)"/><path d="m109.39 110.48 0.033-54.199c-9.482-2.096-20.373-3.311-30.157-3.311-9.848 0-20.262 1.075-29.8 3.195l-0.301 0.067-0.024 54.387 30.111 17.297 30.138-17.436zm-30.143 16.54-29.318-16.86v-53.309c9.391-2.067 19.644-3.122 29.335-3.122s19.955 1.05 29.348 3.118v53.15l-29.365 17.017z"/><path d="m104.26 76.075v24.264l22.742-0.006 0.006-22.157-0.268-0.061c-0.102-0.023-10.309-2.311-22.133-2.386l-0.349-0.003 0.002 0.349zm0.689 0.351c10.588 0.107 19.773 1.965 21.367 2.305 0 0.535-0.006 20.251-0.006 20.91-0.658 0.004-20.703 0.007-21.361 0.01v-23.225z" transform="translate(-20.475,-19.808)"/><path d="m103.41 65.657h-6.424c-0.118-0.369-1.909-6.043-1.909-6.043l-0.279 0.854s-1.56 4.822-1.678 5.189h-6.402s4.904 3.648 5.218 3.879c-0.123 0.363-2.041 6.188-2.041 6.188s4.864-3.573 5.182-3.804c0.312 0.23 5.173 3.8 5.173 3.8s-1.896-5.82-2.013-6.183c0.305-0.231 5.173-3.88 5.173-3.88zm-12.409 8.532c0.402-1.227 1.606-4.867 1.606-4.867s-0.013-0.01-0.03-0.021l2.418-0.813-3.994 5.701zm4.047-5.78-6.561-2.177h4.84 0.178l1.545 2.175-0.002 0.002zm6.634-2.172c-0.924 0.689-3.594 2.689-4.047 3.029l-2.496-0.83 6.543-2.199zm-6.59-4.66c0.403 1.273 1.471 4.655 1.471 4.655h0.011l-1.481 2.112v-6.767h-0.001zm4.051 12.598c0.002 0.008 0.008 0.018 0.008 0.025-0.984-0.722-3.833-2.813-4.059-2.979v-2.752l4.051 5.706z"/><path d="m74.638 55.841c-11.824 0.076-22.047 2.361-22.149 2.386l-0.271 0.062 0.007 22.229 22.763 0.007v-24.688l-0.35 0.004zm-0.343 23.992c-0.658 0-20.723-0.006-21.38-0.006 0-0.661-0.005-20.449-0.005-20.986 1.596-0.34 10.795-2.197 21.385-2.304v23.296z"/><path d="m126.66 108.7h-22.404v33.041l22.75-13.189v-19.852h-0.346zm-0.345 0.69v18.765c-0.33 0.19-20.389 11.817-21.371 12.387v-31.149c0.658-0.003 20.712-0.003 21.371-0.003z" transform="translate(-20.475,-19.808)"/><path d="m114.6 115.44c0 0.51 0.416 0.928 0.928 0.928 0.513 0 0.93-0.418 0.93-0.928 0-0.515-0.417-0.933-0.93-0.933-0.512 0.002-0.928 0.42-0.928 0.933zm0.465 0c0-0.256 0.207-0.465 0.463-0.465 0.252 0 0.461 0.209 0.461 0.465 0 0.254-0.209 0.461-0.461 0.461-0.256 0-0.463-0.207-0.463-0.461z" transform="translate(-20.475,-19.808)"/><path d="m114.48 117.28-0.115 0.215h2.304l-0.116-0.213c-0.203-0.389-0.599-0.627-1.035-0.627-0.434 0-0.831 0.239-1.038 0.625z" transform="translate(-20.475,-19.808)"/><path d="m116.92 118.02h-2.854l-0.033 0.037c-0.469 0.481-1.045 0.895-1.713 1.221l-0.414 0.207 7.261-0.01-0.399-0.203c-0.52-0.267-1.271-0.683-1.771-1.215l-0.034-0.037h-0.043z" transform="translate(-20.475,-19.808)"/><path d="m111.19 119.48c-0.084-0.613-0.615-1.092-1.256-1.092-0.643 0-1.174 0.479-1.254 1.092h2.51z" transform="translate(-20.475,-19.808)"/><path d="m119.9 116.03c-0.25 0.094-0.48 0.262-0.685 0.502-0.233 0.289-0.306 0.672-0.188 1.006 0.19 0.512 0.762 0.779 1.276 0.596 0.353-0.133 0.507-0.424 0.604-0.682 0.457 0.209 0.766 0.682 0.766 1.201 0 0.037-0.003 0.074-0.006 0.109-0.068 0.733-0.621 1.245-1.313 1.215-0.013 0-12.724 0.006-12.724 0.006l0.257 0.438c1.102 1.898 2.822 3.398 4.846 4.229 0.939 0.381 2.049 0.592 3.131 0.592 1.049-0.061 2.106-0.324 3.003-0.746 1.038-0.486 1.981-1.146 2.803-1.965l0.313-0.328c0.504-0.529 0.949-1.305 1.193-2.07 0.109-0.375 0.168-0.678 0.18-0.957 0.045-1.082-0.364-2.072-1.127-2.721-0.696-0.542-1.604-0.704-2.329-0.425zm-0.321 1.309c-0.06-0.166 0.007-0.334 0.088-0.434 0.134-0.156 0.284-0.268 0.44-0.328 0.614-0.238 1.323-0.006 1.756 0.332 0.611 0.523 0.949 1.342 0.912 2.242-0.012 0.229-0.062 0.488-0.158 0.813-0.215 0.681-0.612 1.369-1.055 1.837 0 0.002-0.306 0.317-0.306 0.317-0.771 0.771-1.66 1.392-2.64 1.851-0.827 0.389-1.813 0.635-2.771 0.69-0.989 0-2.021-0.195-2.891-0.554-1.74-0.711-3.222-1.971-4.257-3.541 1.017 0 11.644-0.008 11.644-0.008 0.981 0.047 1.81-0.705 1.907-1.744 0.07-0.825-0.405-1.596-1.176-1.926-0.014-0.004-0.188-0.035-0.188-0.035-0.212 0-0.403 0.127-0.489 0.322l-0.009 0.021c-0.084 0.234-0.165 0.342-0.284 0.389-0.205 0.078-0.446-0.033-0.523-0.244zm1.361 0.054-0.009 0.021c0 0.002-0.003 0-0.005 0.002 0.005-0.009 0.01-0.015 0.014-0.023z" transform="translate(-20.475,-19.808)"/><path d="m111.43 120.34c0.369 2.332 2.075 4.26 4.346 4.908l0.162-0.557c-2.055-0.59-3.602-2.334-3.933-4.441l-0.575 0.09z" transform="translate(-20.475,-19.808)"/><path d="m115.36 124.7 0.16 0.557c2.271-0.65 3.978-2.576 4.346-4.91l-0.573-0.088c-0.334 2.107-1.876 3.851-3.933 4.441z" transform="translate(-20.475,-19.808)"/><path d="m113.4 126.67v0.291h4.492v-0.291c0-1.236-1.006-2.244-2.242-2.244-1.239 0-2.25 1.008-2.25 2.244zm2.25-1.66c0.81 0 1.455 0.598 1.598 1.369h-3.201c0.142-0.771 0.787-1.369 1.603-1.369z" transform="translate(-20.475,-19.808)"/><rect transform="translate(-20.475,-19.808)" height="4.465" width="0.58" y="120.41" x="115.36"/><path d="m119.53 128.65h-7.773c0-0.652 0.552-1.17 1.202-1.17h5.377c0.646 0.001 1.194 0.518 1.194 1.17z" transform="translate(-20.475,-19.808)"/><path d="m83.805 83.276 0.517 0.299c0.468-0.805 1.483-1.374 2.36-1.326 0.663 0.037 1.205 0.188 1.774 0.346 0.424 0.117 1.009 0.23 1.526 0.316v9.021c-0.343-0.053-0.972-0.127-0.972-0.127-0.763-0.12-1.419-0.226-2.296-0.275-1.158-0.064-2.354 0.555-2.91 1.502l0.517 0.301c0.444-0.764 1.417-1.262 2.36-1.209 0.847 0.048 1.49 0.15 2.232 0.27l1.666 0.232-0.004-0.346v-9.877l-0.26-0.034c-0.596-0.079-1.226-0.217-1.701-0.347-0.604-0.167-1.174-0.326-1.9-0.367-1.101-0.06-2.325 0.621-2.909 1.621z" transform="translate(-20.475,-19.808)"/><path d="m81.409 81.655c-0.728 0.041-1.299 0.2-1.903 0.366-0.478 0.131-0.969 0.269-1.566 0.348l-0.256 0.034v10.221l1.525-0.23c0.742-0.119 1.385-0.222 2.231-0.27 0.94-0.053 1.915 0.445 2.364 1.21l0.514-0.302c-0.56-0.947-1.756-1.566-2.909-1.502-0.878 0.05-1.536 0.155-2.296 0.275 0 0-0.493 0.074-0.836 0.127v-9.021c0.514-0.086 0.967-0.199 1.388-0.316 0.573-0.158 1.113-0.309 1.775-0.346 0.874-0.048 1.89 0.521 2.364 1.328l0.514-0.303c-0.588-0.998-1.814-1.679-2.909-1.619z" transform="translate(-20.475,-19.808)"/><polygon points="84.383 93.182 84.383 83.425 83.745 83.425 83.739 93.182" transform="translate(-20.475,-19.808)"/><path d="m84.941 93.645h6.527v-10.325l-0.824-0.866h1.693v12.063l-6.807 0.004c-0.369 0.389-0.899 0.639-1.482 0.639-0.582 0-1.107-0.25-1.48-0.643h-6.786v-12.063h1.837l-0.779 0.844 0.014 10.348h6.305c0.184 0.305 0.512 0.509 0.891 0.509 0.38-0.001 0.711-0.205 0.891-0.51z" transform="translate(-20.475,-19.808)"/><path d="m84.346 93.194c0 0.148-0.127 0.271-0.281 0.271-0.16 0-0.291-0.122-0.291-0.271 0-0.169 0.131-0.293 0.291-0.293 0.154 0 0.281 0.124 0.281 0.293z" transform="translate(-20.475,-19.808)"/><path d="m94.986 108.69h-22.409v19.879l22.755 13.063v-32.941h-0.346v-0.001zm-0.346 0.69v31.059c-0.978-0.561-21.038-12.075-21.372-12.27v-18.789h21.372z" transform="translate(-20.475,-19.808)"/><path d="m86.76 125.37c-0.414-0.535-1.07-0.961-1.873-1.197v-6.604l0.463 0.461h2.166l-0.001-2.162-0.403-0.391-0.738-0.002-0.013-0.148c0-0.316 0.253-0.574 0.563-0.574h0.592v-2.063l-0.376-0.375v-0.002h-0.243l-1.128 0.002h-0.755v0.242c0 0.258-0.06 0.442-0.145 0.586-0.032-0.144-0.103-0.271-0.198-0.371h0.002l-0.009-0.013c-0.007-0.004-0.009-0.01-0.016-0.014l-0.566-0.563-0.012-0.005c-0.139-0.116-0.318-0.19-0.514-0.19h-0.26c-0.447 0-0.794 0.35-0.794 0.795v11.262c-1.674 0.305-2.866 1.395-2.866 2.67 0 0.723 0.385 1.379 1.009 1.871 0.653 0.852 1.897 1.428 3.327 1.428 2.098 0 3.803-1.244 3.803-2.773 0-0.716-0.38-1.378-1.015-1.87zm-2.457-11.383c0.644-0.092 1.068-0.525 1.154-1.188 0.258 0 0.899-0.002 1.202-0.002v1.099h-0.095c-0.584 0-1.063 0.481-1.063 1.078 0 0.582 0.479 1.057 1.063 1.057h0.095v1.162h-1.202c-0.086-0.687-0.518-1.146-1.154-1.246v-1.96zm-1.28-1.205c0-0.152 0.123-0.271 0.273-0.271h0.26c0.153 0 0.275 0.119 0.275 0.271v0.438h-0.809l0.001-0.438zm0 0.961h0.809v2.564h-0.809v-2.564zm0.415 15.217c-1.806 0-3.276-1.01-3.276-2.246 0-1.066 1.108-1.988 2.635-2.191l0.228-0.032v-7.654h0.809v7.654l0.228 0.032c1.541 0.199 2.663 1.121 2.663 2.191-0.002 1.236-1.478 2.246-3.287 2.246zm0-3.688c-1.314 0-2.344 0.633-2.344 1.44 0 0.806 1.029 1.437 2.344 1.437s2.347-0.631 2.347-1.437c-0.001-0.807-1.033-1.44-2.347-1.44zm0.765 2.249c-1.232 0.332-2.038-0.182-2.038-0.182s-0.212-0.582 0.981-0.912c1.158-0.324 2.099 0.172 2.099 0.172s0.188 0.588-1.042 0.922z" transform="translate(-20.475,-19.808)"/><path d="m100.14 58.268c0.02 0 0.535-0.771 0.537-0.773 0 0.032 0.559 0.909 0.598 0.967h-3.289c0.023 0 0.643-0.963 0.644-0.967 0 0.031 0.494 0.773 0.494 0.773 0.023 0 0.532-0.77 0.534-0.773-0.001 0.032 0.482 0.773 0.482 0.773z" transform="translate(-20.475,-19.808)"/><path d="m97.937 38.859c0.141-0.156 0.334-0.251 0.548-0.262 0.206-0.01 0.406 0.061 0.554 0.188 0.006 0.007 4.286 3.713 6.043 5.23-1.303-0.083-3.91-0.729-7.113-4.1h-0.004c-0.131-0.141-0.209-0.316-0.213-0.495-0.002-0.019-0.002-0.038-0.002-0.058 0-0.192 0.064-0.366 0.187-0.503zm-11.648 6.052 0.006-0.163c0.051-0.118 0.197-0.173 0.32-0.118 0 0.002 0.115 0.127 0.115 0.127 0 0.004 0.645 1.627 0.918 2.311-0.352-0.219-0.961-0.775-1.359-2.152 0.004 0.013 0-0.019 0-0.005zm-1.705-1.853c0.015-0.08 0.094-0.137 0.176-0.122l0.104 0.068s0.673 0.969 1.027 1.478c-0.31-0.129-0.796-0.438-1.29-1.313l-0.002-0.002h0.002l-0.017-0.109zm0.718-0.375c0.008 0.012-0.004-0.021-0.002-0.007l-0.021-0.109c0.021-0.091 0.109-0.15 0.205-0.134 0 0.002 0.101 0.072 0.101 0.072 0 0.002 0.748 1.072 1.112 1.596-0.324-0.132-0.861-0.483-1.395-1.418zm9.352-2.729c-0.609-0.117-1.818-0.579-3.145-2.385-0.002-0.002-0.002-0.004-0.006-0.008-0.047-0.057-0.071-0.129-0.071-0.201 0-0.016 0-0.029 0.003-0.045 0.017-0.212 0.199-0.365 0.408-0.354 0.093 0.012 0.188 0.063 0.268 0.137 0 0.001 1.824 2.048 2.543 2.856zm-2.336-3.426c0-0.104 0.035-0.203 0.1-0.279 0.08-0.09 0.189-0.143 0.308-0.15 0.122-0.008 0.237 0.029 0.313 0.098 0.004 0.004 2.428 2.039 3.313 2.785-0.665-0.017-2.102-0.298-3.901-2.129v-0.003c-0.082-0.076-0.125-0.169-0.131-0.284-0.002-0.013-0.002-0.026-0.002-0.038zm-4.432 4.348c0.002 0.002 0.931 1.337 1.336 1.918-0.373-0.131-1.047-0.518-1.703-1.681l-0.029-0.159c0.026-0.109 0.139-0.188 0.256-0.164l0.14 0.086zm0.304-0.398v0.002-0.006 0.004c0-0.004-0.024-0.163-0.024-0.163 0-0.005 0.102-0.159 0.102-0.159l0.166-0.031 0.158 0.094c0.002 0.003 1.002 1.435 1.422 2.037-0.393-0.132-1.117-0.531-1.824-1.778zm0.744-0.594c0.007 0.012-0.001-0.017 0-0.002l-0.034-0.189c0.025-0.152 0.178-0.251 0.334-0.227 0 0.006 0.172 0.126 0.172 0.126s1.148 1.644 1.598 2.288c-0.428-0.136-1.264-0.568-2.07-1.996zm0.859-0.793s-0.002-0.006-0.004-0.008c0.002 0.004 0.004 0.004 0.004 0.004-0.002-0.006-0.031-0.195-0.031-0.195 0.027-0.143 0.175-0.24 0.315-0.213 0.054 0.012 0.128 0.04 0.175 0.109 0.004 0.003 1.176 1.686 1.719 2.461-0.495-0.183-1.346-0.694-2.178-2.158zm0.837-0.708c-0.039-0.063-0.06-0.125-0.06-0.192 0-0.014 0-0.029 0.004-0.046 0.013-0.077 0.058-0.155 0.13-0.206 0.069-0.052 0.15-0.071 0.233-0.059 0.087 0.011 0.162 0.055 0.209 0.122 0.006 0.003 1.465 1.874 2.088 2.672-0.547-0.155-1.563-0.652-2.604-2.291zm-0.71-2.509v-0.002s-0.006-0.006-0.006-0.004c0 0 0.002 0 0.004 0.004-0.002 0-0.147-0.182-0.147-0.182-0.011-0.034-0.017-0.067-0.017-0.101 0-0.138 0.09-0.264 0.229-0.312 0.09-0.033 0.168-0.027 0.242 0.016 0.006 0.002 1.172 0.557 1.69 0.807-0.355 0.139-1.083 0.299-1.995-0.226zm0.736 1.035c-0.334 0.087-0.999 0.152-1.756-0.411 0-0.003-0.016-0.017-0.007-0.007l-0.065-0.066c-0.057-0.092-0.057-0.119-0.057-0.141 0-0.137 0.156-0.388 0.404-0.305 0 0.002 0.068 0.033 0.068 0.033s0.975 0.618 1.413 0.897zm-0.837 0.875c-0.296 0.082-0.847 0.138-1.41-0.33 0-0.002-0.007-0.008-0.007-0.008s0 0.004 0.002 0.006c-0.002-0.002-0.094-0.178-0.094-0.178 0-0.014 0.039-0.195 0.039-0.195 0.044-0.064 0.115-0.113 0.199-0.127 0.066-0.013 0.143 0.007 0.197 0.053 0.007 0.002 0.712 0.515 1.074 0.779zm-1.336 0.342s0.464 0.338 0.745 0.545c-0.262 0.07-0.689 0.124-1.038-0.157v-0.003 0.002c-0.006-0.004-0.092-0.146-0.092-0.146v-0.03c0-0.123 0.085-0.23 0.206-0.252 0.002 0 0.179 0.041 0.179 0.041zm0.163 1.143c-0.205 0.129-0.564 0.286-0.939 0.141 0 0 0 0.001 0.002 0.004l-0.006-0.005-0.113-0.116c-0.012-0.027-0.018-0.055-0.018-0.082 0-0.081 0.047-0.164 0.127-0.203 0 0.002 0.141-0.01 0.141-0.01 0.009 0.005 0.505 0.169 0.806 0.271zm-0.742 0.74c-0.176 0.135-0.479 0.303-0.824 0.197l-0.006-0.002s0 0.001 0.003 0.002c-0.003-0.001-0.108-0.08-0.108-0.08-0.021-0.033-0.03-0.066-0.03-0.1 0-0.068 0.035-0.134 0.094-0.169 0.007-0.003 0.15-0.026 0.15-0.026s0.447 0.111 0.721 0.178zm-0.925 1.33 0.128 0.078c0.003 0.002 0.874 1.246 1.27 1.81-0.36-0.132-0.985-0.505-1.604-1.585v0.004s0-0.006-0.002-0.008l0.002 0.004c0-0.005-0.021-0.14-0.021-0.14 0-0.007 0.084-0.132 0.084-0.132l0.143-0.031zm0.54 2.322c-0.342-0.132-0.924-0.491-1.494-1.502l-0.021-0.131c0.019-0.092 0.119-0.158 0.22-0.141 0 0.002 0.118 0.077 0.118 0.077s0.798 1.153 1.177 1.697zm-0.412 0.938c0.012 0.02 0-0.025 0-0.004v-0.168c0 0.005 0.105-0.109 0.105-0.109 0.057-0.029 0.123-0.033 0.186-0.014 0.052 0.02 0.102 0.063 0.126 0.113 0.001 0.002 0.792 1.574 1.187 2.357-0.418-0.245-1.081-0.824-1.604-2.175zm0.922-0.334c-0.025-0.055-0.033-0.094-0.033-0.125 0-0.018 0.002-0.034 0.006-0.049 0.02-0.088 0.063-0.129 0.098-0.15 0.056-0.038 0.128-0.051 0.193-0.035 0.076 0.014 0.123 0.046 0.159 0.103 0.003 0.002 1.095 1.688 1.703 2.626-0.546-0.276-1.359-0.901-2.126-2.37zm1.089-0.44c-0.036-0.057-0.081-0.143-0.081-0.241 0-0.007 0.002-0.015 0.002-0.021 0.014-0.196 0.189-0.351 0.394-0.339 0.089 0.012 0.187 0.061 0.254 0.138 0 0 1.838 2.059 2.713 3.039-0.711-0.18-1.936-0.753-3.282-2.576zm1.329-0.549c-0.045-0.059-0.098-0.153-0.098-0.285v-0.018c0.014-0.229 0.214-0.413 0.449-0.404 0.123 0.006 0.219 0.05 0.289 0.129 0.008 0.006 2.236 2.317 3.217 3.334-0.777-0.146-2.215-0.699-3.857-2.756zm1.549-0.537c-0.004 0-0.004-0.002-0.006-0.004-0.087-0.088-0.141-0.214-0.143-0.343v-0.024c0-0.293 0.219-0.531 0.512-0.548 0.145-0.005 0.282 0.042 0.391 0.138 0.002 0.004 3.024 2.622 4.336 3.759-0.971-0.085-2.829-0.605-5.09-2.978zm1.959-0.714c-0.105-0.117-0.168-0.261-0.17-0.4 0-0.02-0.004-0.037-0.004-0.055 0-0.161 0.055-0.299 0.154-0.41 0.109-0.129 0.27-0.205 0.445-0.213 0.166-0.012 0.332 0.045 0.446 0.151 0.003 0.005 3.484 3.021 4.903 4.247-1.05-0.067-3.167-0.584-5.774-3.32zm2.039-0.93c-0.002-0.004-0.004-0.006-0.006-0.008-0.119-0.118-0.193-0.281-0.208-0.463v-0.027c0-0.369 0.286-0.68 0.669-0.695 0.196-0.013 0.366 0.047 0.508 0.176 0.004 0.004 3.854 3.334 5.43 4.697-1.171-0.077-3.512-0.658-6.393-3.68zm-11.74-1.609c0.521 0.015 1-0.139 1.373-0.438 0.551-0.452 0.694-1.104 0.766-1.676 0.128-1.129 0.479-2.011 1.052-2.623 1.674-1.782 4.823-1.69 7.185 0.219l2.773 2.41c0.216 0.188 0.24 0.516 0.051 0.732-0.188 0.213-0.511 0.237-0.728 0.051l-2.763-2.398c-1.931-1.561-4.459-1.693-5.765-0.307-0.415 0.446-0.675 1.13-0.778 2.037-0.09 0.734-0.302 1.664-1.138 2.355-0.571 0.463-1.282 0.695-2.059 0.673-0.284-0.009-0.511-0.249-0.503-0.532 0.011-0.288 0.248-0.51 0.534-0.503zm-23.249-2.108s2.779-2.41 2.793-2.422c2.343-1.9 5.49-1.992 7.16-0.208 0.568 0.608 0.926 1.491 1.059 2.618 0.078 0.609 0.223 1.236 0.754 1.675 0.383 0.306 0.85 0.459 1.353 0.443 0.29-0.009 0.524 0.217 0.532 0.503 0.01 0.285-0.217 0.523-0.5 0.531-0.742 0.021-1.463-0.215-2.036-0.674-0.827-0.679-1.035-1.613-1.13-2.355-0.107-0.905-0.373-1.589-0.787-2.033-1.301-1.39-3.83-1.256-5.74 0.293l-2.781 2.411c-0.217 0.188-0.544 0.163-0.733-0.053-0.187-0.215-0.162-0.543 0.056-0.729zm11.376 4.781c0 0.002-0.003 0.006-0.003 0.006v-0.002c-0.564 1.01-1.153 1.369-1.498 1.498 0.29-0.412 1.184-1.697 1.184-1.697-0.006 0.01 0.125-0.078 0.125-0.078 0.109-0.018 0.195 0.057 0.213 0.145 0 0.008-0.021 0.129-0.023 0.133 0.002-0.003 0.002-0.003 0.002-0.005zm-0.731-0.666c0 0.027-0.018 0.146-0.018 0.154-0.615 1.078-1.242 1.447-1.604 1.579 0.295-0.417 1.264-1.808 1.264-1.808 0.006-0.003 0.133-0.081 0.133-0.081 0.002 0 0.15 0.032 0.15 0.032l0.074 0.12c0.001 0.002 0.001 0.002 0.001 0.004zm-3.872-3.113c0 0.002-0.002 0.006-0.002 0.006v-0.001c-1.042 1.638-2.058 2.134-2.608 2.289 0.447-0.567 2.087-2.667 2.087-2.667 0.05-0.074 0.128-0.117 0.212-0.125 0.089-0.015 0.167 0.003 0.233 0.051 0.075 0.053 0.122 0.133 0.137 0.219-0.003 0-0.059 0.227-0.061 0.232 0 0 0.002-0.001 0.002-0.004zm0.378 0.412c0.039-0.059 0.101-0.098 0.176-0.115 0.139-0.025 0.281 0.068 0.313 0.214 0 0.001-0.031 0.19-0.031 0.196 0 0 0-0.002 0.003-0.004-0.003 0.002-0.003 0.006-0.003 0.006v-0.002c-0.83 1.467-1.684 1.979-2.176 2.162 0.407-0.583 1.718-2.457 1.718-2.457zm0.844 0.797c0.042-0.065 0.109-0.106 0.188-0.123 0.14-0.027 0.292 0.076 0.325 0.223-0.004 0-0.041 0.188-0.041 0.188 0.006-0.016-0.008 0.019-0.002 0.006-0.807 1.426-1.64 1.86-2.065 1.998 0.301-0.436 1.595-2.292 1.595-2.292zm0.815 0.633c0.003-0.006 0.161-0.1 0.161-0.1l0.164 0.032 0.109 0.157c-0.002 0-0.026 0.157-0.026 0.157 0-0.013-0.011 0.02-0.005 0.005-0.707 1.248-1.432 1.648-1.824 1.781 0.299-0.425 1.421-2.032 1.421-2.032zm0.702 0.656c0.002 0 0.148-0.09 0.148-0.09 0.002 0.002 0.157 0.035 0.157 0.035l0.093 0.133s-0.024 0.156-0.025 0.162l0.005-0.005c-0.004 0.003-0.005 0.007-0.005 0.007v-0.001c-0.66 1.157-1.336 1.546-1.713 1.675 0.295-0.421 1.34-1.916 1.34-1.916zm0.926-0.763c-0.006 0.015-0.109 0.09-0.111 0.091 0.002-0.001 0.002-0.002 0.002-0.002l-0.004 0.002c-0.348 0.105-0.648-0.064-0.83-0.197 0.256-0.062 0.727-0.178 0.727-0.178 0.006-0.002 0.145 0.023 0.145 0.023 0.005 0 0.098 0.133 0.098 0.133l-0.027 0.128zm-0.629-0.817c-0.002-0.002-0.105 0.102-0.111 0.11l-0.006 0.004c0.004-0.003 0.004-0.004 0.004-0.004-0.379 0.146-0.735-0.011-0.938-0.142 0.272-0.092 0.79-0.264 0.79-0.264 0.012-0.006 0.159 0.006 0.159 0.006 0.077 0.037 0.125 0.113 0.125 0.194 0 0.033-0.005 0.065-0.023 0.096zm-0.504-0.929c0-0.007-0.092 0.138-0.094 0.144v-0.002 0.002c-0.352 0.282-0.779 0.228-1.044 0.157 0.261-0.189 0.751-0.547 0.751-0.547-0.008 0.005 0.184-0.038 0.184-0.038 0.117 0.021 0.203 0.129 0.203 0.254v0.03zm-0.312-0.919c0.007-0.012-0.008 0-0.008 0.002-0.561 0.468-1.109 0.411-1.408 0.332 0.299-0.215 1.078-0.777 1.078-0.777 0.059-0.049 0.133-0.067 0.205-0.055 0.156 0.029 0.258 0.168 0.232 0.318l-0.099 0.18zm-0.375-1.136c-0.016 0.1-0.083 0.159-0.111 0.18v0.001c-0.762 0.567-1.428 0.501-1.758 0.415 0.323-0.207 1.408-0.9 1.408-0.9 0.066-0.043 0.146-0.059 0.234-0.045 0.159 0.036 0.258 0.186 0.227 0.349zm-0.985-0.621c0-0.001-0.143 0.165-0.15 0.175l0.002-0.002s-0.002 0.002-0.002 0.006v-0.004l-0.003 0.004h0.002c-0.911 0.525-1.642 0.367-1.997 0.227 0.387-0.184 1.686-0.803 1.686-0.803 0.076-0.045 0.164-0.051 0.244-0.02 0.142 0.048 0.232 0.18 0.232 0.323 0 0.031-0.008 0.063-0.014 0.094zm-2.064 1.268c0.1-0.007 0.193 0.026 0.271 0.097 0.075 0.063 0.117 0.152 0.123 0.246 0.002 0.018 0.006 0.033 0.006 0.051 0 0.082-0.025 0.15-0.073 0.207-0.001 0.002-0.003 0.005-0.003 0.008-1.326 1.802-2.523 2.264-3.131 2.385 0.485-0.548 2.541-2.867 2.541-2.867 0.065-0.067 0.166-0.114 0.266-0.127zm-0.488-0.401c-0.006 0.116-0.047 0.214-0.128 0.293-1.795 1.83-3.231 2.112-3.896 2.129 0.563-0.473 3.307-2.781 3.307-2.781 0.083-0.072 0.196-0.109 0.313-0.104 0.117 0.01 0.229 0.063 0.309 0.153 0.063 0.077 0.099 0.174 0.099 0.274-0.002 0.012-0.004 0.024-0.004 0.036zm-3.643 3.567c0.116 0.13 0.181 0.294 0.181 0.469v0.039c-0.015 0.175-0.083 0.337-0.198 0.454-0.002 0.002-0.002 0.002-0.006 0.004-2.884 3.023-5.229 3.604-6.398 3.682 1.061-0.917 5.428-4.693 5.428-4.693 0.141-0.132 0.317-0.193 0.508-0.182 0.186 0.009 0.36 0.089 0.485 0.227zm1.127 0.976c0.128-0.113 0.291-0.17 0.462-0.157 0.337 0.017 0.604 0.306 0.604 0.648 0 0.008 0 0.015-0.004 0.022-0.005 0.143-0.07 0.287-0.184 0.404-2.604 2.74-4.722 3.256-5.771 3.323 0.942-0.817 4.893-4.24 4.893-4.24zm2.078 0.859c0.111-0.098 0.258-0.148 0.407-0.142 0.284 0.017 0.509 0.256 0.509 0.54v0.025c-0.007 0.135-0.063 0.258-0.148 0.342-0.007 0.004-0.01 0.008-0.013 0.012-2.26 2.373-4.113 2.889-5.085 2.978 0.93-0.806 4.33-3.755 4.33-3.755zm1.662 0.744c0.095-0.106 0.217-0.133 0.309-0.14 0.223-0.007 0.424 0.178 0.438 0.415v0.011c0 0.101-0.031 0.199-0.098 0.279-0.002 0-0.002 0.001-0.002 0.003-1.641 2.059-3.082 2.61-3.861 2.756 0.712-0.737 3.214-3.324 3.214-3.324zm1.411 0.65c0.067-0.072 0.165-0.12 0.271-0.134 0.188-0.011 0.361 0.141 0.38 0.345v0.021c0 0.091-0.046 0.176-0.088 0.232-1.341 1.827-2.563 2.398-3.269 2.58 0.669-0.753 2.706-3.044 2.706-3.044zm1.236 0.654c0.048-0.071 0.092-0.093 0.145-0.103 0.08-0.018 0.148-0.007 0.205 0.031 0.029 0.018 0.08 0.061 0.092 0.131 0.008 0.027 0.013 0.049 0.013 0.072 0 0.034-0.013 0.072-0.037 0.125-0.761 1.468-1.577 2.094-2.122 2.367 0.518-0.806 1.704-2.623 1.704-2.623zm0.923 0.409c-0.005 0.008 0.131-0.115 0.131-0.115 0.063-0.021 0.126-0.016 0.182 0.01l0.106 0.122c0.005 0.011 0.008 0.142 0.008 0.142 0-0.023-0.02 0.041-0.011 0.021-0.521 1.348-1.181 1.928-1.593 2.174 0.31-0.622 1.177-2.354 1.177-2.354zm0.788 0.342c-0.004 0.009 0.135-0.135 0.135-0.135 0 0.002 0.182-0.002 0.182-0.001l0.131 0.118v0.004c0 0.021 0.005 0.167 0.005 0.167-0.401 1.379-1.013 1.935-1.364 2.153 0.188-0.482 0.911-2.306 0.911-2.306zm0.04-0.66c0.286-0.408 1.113-1.594 1.113-1.594 0.003-0.004 0.103-0.075 0.103-0.075 0 0.001 0.137 0.032 0.137 0.032l0.062 0.097c0 0.004-0.017 0.116-0.017 0.116 0.002-0.016-0.012 0.018-0.003 0.006-0.525 0.939-1.068 1.288-1.395 1.418zm1.838-1.097c0.001-0.005 0.107-0.071 0.107-0.071 0.074-0.014 0.155 0.043 0.177 0.128-0.008 0.005-0.024 0.096-0.024 0.096 0.006-0.011-0.008 0.011-0.008 0.013-0.49 0.869-0.972 1.182-1.281 1.311 0.295-0.423 1.029-1.477 1.029-1.477zm-14.185-4.211c0.156-0.138 0.354-0.206 0.565-0.196 0.415 0.021 0.743 0.366 0.743 0.776 0 0.013 0 0.024-0.003 0.039-0.005 0.177-0.089 0.36-0.226 0.507-3.209 3.367-5.814 4.013-7.113 4.098 1.178-1.018 6.034-5.224 6.034-5.224zm-13.348 11.565c1.18-1.021 6.039-5.224 6.039-5.224 0.152-0.138 0.354-0.205 0.561-0.191 0.21 0.006 0.397 0.094 0.533 0.244 0.14 0.146 0.215 0.336 0.215 0.535 0 0.012 0 0.021-0.003 0.032-0.011 0.188-0.089 0.368-0.226 0.507-3.206 3.363-5.812 4.01-7.119 4.097zm3.571 0.09c1.059-0.916 5.439-4.703 5.439-4.703 0.129-0.123 0.309-0.18 0.504-0.17 0.186 0.007 0.353 0.085 0.477 0.221 0.118 0.131 0.186 0.299 0.186 0.477v0.035c-0.012 0.215-0.117 0.367-0.203 0.457-2.885 3.03-5.229 3.609-6.403 3.683zm3.389 0.052c0.942-0.817 4.893-4.241 4.893-4.241 0.124-0.107 0.292-0.164 0.469-0.158 0.166 0.009 0.323 0.082 0.437 0.209 0.111 0.119 0.168 0.268 0.168 0.426v0.031c-0.012 0.156-0.076 0.302-0.188 0.418-0.002 0.001-0.006 0.002-0.006 0.002-2.602 2.732-4.723 3.248-5.773 3.313zm3.046 0.095c0.859-0.748 4.389-3.809 4.389-3.809 0.113-0.101 0.254-0.146 0.412-0.141 0.15 0.006 0.285 0.072 0.39 0.185 0.092 0.104 0.146 0.235 0.146 0.373 0 0.012 0 0.022-0.005 0.033-0.002 0.144-0.055 0.271-0.152 0.358-0.006 0.004-0.009 0.01-0.014 0.014-2.322 2.447-4.221 2.922-5.166 2.987zm3.098 0.07c0.72-0.748 3.627-3.758 3.627-3.758 0.066-0.077 0.173-0.158 0.35-0.158 0.284-0.01 0.518 0.207 0.529 0.482v0.016c0 0.111-0.042 0.233-0.119 0.332-1.885 2.375-3.541 2.951-4.387 3.086zm2.679-0.076c0.679-0.76 3.076-3.449 3.076-3.449 0.074-0.087 0.178-0.137 0.299-0.146 0.115-0.013 0.225 0.021 0.31 0.093 0.09 0.077 0.141 0.183 0.149 0.3 0.002 0.014 0.002 0.027 0.002 0.042 0 0.11-0.045 0.198-0.085 0.256-1.552 2.111-2.977 2.728-3.751 2.904zm2.308 0.02c0.606-0.807 2.444-3.252 2.444-3.252 0.053-0.074 0.145-0.127 0.241-0.146 0.194-0.029 0.382 0.103 0.412 0.295 0.003 0.02 0.005 0.041 0.005 0.063 0 0.064-0.016 0.131-0.056 0.203-1.186 1.924-2.358 2.596-3.046 2.837zm1.98-0.05c0.537-0.823 1.959-3.006 1.959-3.006 0.041-0.067 0.111-0.116 0.197-0.138 0.07-0.018 0.147-0.002 0.217 0.039 0.064 0.043 0.113 0.107 0.131 0.182 0.003 0.024 0.006 0.05 0.006 0.072 0 0.064-0.017 0.117-0.036 0.156-0.9 1.719-1.867 2.415-2.474 2.695zm1.775-0.127c0.432-0.86 1.399-2.79 1.399-2.79 0.025-0.057 0.081-0.1 0.147-0.122 0.064-0.022 0.131-0.019 0.19 0.011 0.058 0.027 0.101 0.075 0.122 0.133-0.004 0.001-0.012 0.182-0.013 0.191 0.001 0 0.001 0 0.004-0.009 0 0.005-0.003 0.009-0.004 0.013-0.601 1.531-1.339 2.242-1.845 2.573zm1.463-0.066c0.342-0.862 0.997-2.512 0.997-2.512 0.022-0.051 0.055-0.088 0.111-0.119 0.036-0.015 0.094-0.019 0.144 0.002 0.037 0.014 0.082 0.041 0.107 0.1v0.002c0 0.012 0.005 0.133 0.005 0.152 0.003 0.002 0.003 0.002 0.009-0.011-0.004 0.007-0.006 0.011-0.009 0.016 0 0.002 0.003 0.007 0.003 0.007-0.003-0.004-0.003-0.004-0.003-0.005-0.395 1.329-0.946 2.015-1.364 2.368zm2.195-2.265c-0.209 1.148-0.598 1.803-0.926 2.174 0.24-0.847 0.635-2.248 0.635-2.248 0 0.002 0.082-0.107 0.082-0.107 0.055-0.03 0.15-0.004 0.193 0.07v0.002c0 0.018 0.018 0.098 0.018 0.098-0.004-0.031-0.009 0.043-0.002 0.011zm0.317-0.811c0.139-0.488 0.601-2.104 0.601-2.104 0 0.006 0.094-0.123 0.094-0.123 0.093-0.056 0.218-0.021 0.276 0.07 0.003 0.003 0.02 0.134 0.02 0.134-0.003-0.014-0.004 0.02-0.003 0.008-0.22 1.221-0.693 1.775-0.988 2.015zm2.288-1.724c0.196-0.846 0.94-1.39 1.655-1.223 0.598 0.143 1 0.721 1 1.424 0 0.022 0 0.049-0.001 0.072v5.017h-4.077c0.22-0.82 1.423-5.29 1.423-5.29zm6.734 4.468s-0.974 0.375-1.632 1.511c0 0-0.545-1.036-1.686-1.511v-4.363s0.084-1.307-1.256-1.977l-0.843-3.795s-0.022-0.387-0.259-0.682c0 0 1.178-0.511 1.723-1.591 0.545-1.079 0.635-2.091-0.043-3.022h0.658s-0.045-0.761-0.971-0.761h-1.412s-0.509 0-0.954 0.251c0 0 0.036-1.152 1.277-1.235h1.776s0.902-0.067 0.904-0.774h-1.336s0.395-0.535 1.442-0.535c1.044 0 2.454 0.67 3.065 0.988l-0.896 0.409 0.715 0.646s-0.487 2.648 0.388 4.047c0 0 0.623 1.146 1.725 1.544 0 0-0.204 0.216-0.282 0.648l-0.908 3.907s-1.125 0.523-1.185 1.943l-0.01 4.352zm0.79 0.822v-5.001-0.088c0-0.699 0.408-1.283 0.994-1.425 0.717-0.165 1.461 0.378 1.658 1.212 0.002 0.011 1.047 3.913 1.422 5.302h-4.074zm6.449 2.472v-0.388c0-0.857-0.639-1.566-1.471-1.695l-0.371-1.395h0.668c0.551 1.084 1.239 1.339 1.281 1.354 0.09 0.031 0.189 0.01 0.262-0.059 0.067-0.064 0.096-0.164 0.069-0.258l-0.133-0.465c0.587 0.662 1.112 0.801 1.147 0.811 0.097 0.021 0.194-0.01 0.254-0.082 0.064-0.072 0.082-0.176 0.048-0.264l-0.214-0.537c0.757 0.762 1.4 0.873 1.44 0.88 0.099 0.014 0.193-0.026 0.248-0.104 0.056-0.078 0.063-0.182 0.021-0.268l-0.245-0.492c0.981 0.848 1.771 0.895 1.817 0.896 0.099 0.003 0.187-0.049 0.236-0.132 0.046-0.083 0.044-0.187-0.01-0.269l-0.33-0.508c1.174 0.916 2.072 0.91 2.129 0.908 0.094-0.003 0.184-0.061 0.223-0.147 0.045-0.088 0.03-0.189-0.024-0.267l-0.438-0.58c1.461 1.011 2.512 0.912 2.579 0.904 0.093-0.012 0.177-0.074 0.21-0.165s0.018-0.192-0.047-0.265l-0.393-0.438c1.678 1.084 2.859 0.921 2.931 0.908 0.095-0.016 0.171-0.081 0.203-0.172 0.028-0.093 0.009-0.193-0.062-0.262l-0.479-0.495c2.082 1.173 3.469 0.863 3.547 0.845 0.103-0.025 0.185-0.107 0.208-0.211s-0.009-0.211-0.091-0.281l-0.058-0.051c1.813 0.775 2.979 0.512 3.056 0.493 0.108-0.028 0.198-0.116 0.227-0.229 0.024-0.1-0.012-0.197-0.077-0.272 1.989 0.839 3.262 0.544 3.346 0.523 0.127-0.032 0.223-0.132 0.254-0.259 0.021-0.086 0-0.168-0.041-0.242 2.066 0.808 3.377 0.504 3.473 0.482 0.139-0.035 0.25-0.146 0.28-0.286 0.034-0.142-0.013-0.289-0.122-0.384l-3.34-2.894-15.16-13.176c-2.691-2.173-6.314-2.243-8.256-0.171-0.683 0.738-1.106 1.77-1.25 3.07-0.076 0.525-0.185 0.908-0.484 1.152-0.148 0.117-0.376 0.217-0.607 0.264-0.677 0.083-1.518-0.308-2.063-0.977-0.213-0.268-0.396-0.59-0.505-0.885-0.555-1.73 0.175-4.289 0.181-4.314l0.08-0.276-0.42-0.275c-2.018-1.094-3.609-1.405-4.748-0.943-0.751 0.304-1.068 0.854-1.183 1.101h-0.426c-1.133 0-2.056 0.908-2.056 2.023l0.176 1.313 0.5-0.42c0.709-0.477 1.5-0.515 2.009-0.102 0.698 0.573 0.635 1.82-0.147 2.781-0.768 0.942-1.994 1.268-2.678 0.711-0.303-0.244-0.412-0.641-0.479-1.16-0.147-1.282-0.573-2.314-1.268-3.061-1.941-2.079-5.563-2.008-8.24 0.16-0.01 0.006-7.742 6.734-12.942 11.256-1.947 1.683-5.573 4.822-5.573 4.822-0.111 0.095-0.156 0.242-0.126 0.384 0.03 0.14 0.146 0.251 0.284 0.286 0.092 0.021 1.4 0.324 3.468-0.479-0.04 0.072-0.063 0.156-0.042 0.24 0.028 0.127 0.127 0.227 0.252 0.259 0.085 0.021 1.357 0.315 3.348-0.521-0.063 0.074-0.1 0.173-0.074 0.271 0.024 0.113 0.115 0.201 0.227 0.229 0.075 0.019 1.243 0.284 3.055-0.493l-0.057 0.051c-0.078 0.07-0.115 0.178-0.092 0.281 0.027 0.104 0.107 0.186 0.208 0.211 0.081 0.019 1.469 0.328 3.552-0.85-0.293 0.301-0.481 0.5-0.481 0.5-0.069 0.068-0.093 0.169-0.064 0.262 0.032 0.091 0.114 0.156 0.207 0.172 0.071 0.013 1.251 0.176 2.925-0.906l-0.387 0.436c-0.045 0.049-0.067 0.11-0.067 0.173 0 0.031 0.005 0.062 0.017 0.092 0.036 0.091 0.117 0.153 0.211 0.165 0.066 0.008 1.125 0.107 2.584-0.906l-0.438 0.582c-0.059 0.077-0.066 0.18-0.025 0.267 0.042 0.087 0.129 0.145 0.226 0.147 0.058 0.002 0.949 0.008 2.118-0.896-0.197 0.297-0.324 0.496-0.324 0.496-0.055 0.082-0.057 0.186-0.009 0.269 0.046 0.083 0.136 0.135 0.233 0.132 0.051-0.002 0.84-0.049 1.822-0.9-0.15 0.297-0.25 0.496-0.25 0.496-0.043 0.086-0.035 0.189 0.025 0.268 0.055 0.078 0.149 0.118 0.247 0.104 0.039-0.007 0.679-0.116 1.429-0.873-0.123 0.315-0.209 0.53-0.209 0.53-0.034 0.088-0.018 0.191 0.044 0.264 0.063 0.072 0.164 0.104 0.256 0.082 0.036-0.01 0.567-0.15 1.157-0.82-0.079 0.285-0.133 0.476-0.133 0.476-0.025 0.093 0.002 0.192 0.072 0.257 0.072 0.068 0.17 0.09 0.262 0.059 0.039-0.015 0.727-0.27 1.277-1.354h0.676c-0.153 0.575-0.287 1.075-0.373 1.398-0.801 0.146-1.413 0.847-1.413 1.691v0.388l0.668 0.007s-0.209-1.371 1.046-1.458c0 0 0.391 0.019 0.588 0.184 0 0-0.298 0.423-0.24 1.274h0.672s-0.208-1.371 1.061-1.458c0 0 1.172-0.005 1.049 1.46l0.672-0.009s0.1-0.823-0.201-1.202c0 0 0.242-0.301 0.731-0.307 0.488-0.008 1.233 0.396 1.052 1.509h3.516c-0.146-1.128 0.563-1.521 1.055-1.517 0.486 0.005 0.729 0.307 0.729 0.307-0.318 0.429-0.195 1.219-0.195 1.219h0.668c-0.162-1.492 1.053-1.469 1.053-1.469 1.266 0.088 1.067 1.467 1.067 1.467h0.668c0.146-0.88-0.247-1.281-0.247-1.281 0.197-0.166 0.588-0.186 0.588-0.186 1.258 0.088 1.049 1.459 1.049 1.459h0.667zm-2.509-8.053c0.002 0.013 0-0.019 0-0.006l0.017-0.133c0.06-0.095 0.182-0.128 0.278-0.073 0.002 0.002 0.09 0.117 0.09 0.117 0 0.004 0.41 1.453 0.601 2.109-0.3-0.239-0.768-0.793-0.986-2.014zm1.3 2.826c0.004 0.03 0.004-0.033-0.002-0.002l0.021-0.111c0.04-0.07 0.142-0.096 0.213-0.057 0.027 0.02 0.048 0.055 0.054 0.078 0.002 0.013 0.393 1.375 0.644 2.266-0.328-0.37-0.721-1.026-0.93-2.174zm0.832-0.114v-0.006 0.004c0-0.003 0.004-0.141 0.004-0.141 0.027-0.053 0.066-0.091 0.117-0.109 0.043-0.016 0.092-0.013 0.133 0.006 0.076 0.035 0.098 0.075 0.109 0.105 0.002 0.007 0.623 1.572 0.998 2.52-0.415-0.357-0.97-1.043-1.361-2.379zm0.983-0.132c-0.018-0.047-0.018-0.084-0.018-0.113 0-0.031 0-0.054 0.01-0.072 0.045-0.127 0.186-0.194 0.313-0.149 0.064 0.022 0.117 0.066 0.146 0.118 0.001 0.004 0.897 1.797 1.399 2.796-0.506-0.334-1.245-1.044-1.85-2.58zm1.148 0.009c-0.023-0.051-0.037-0.098-0.037-0.144 0-0.024 0.006-0.048 0.009-0.069 0.022-0.092 0.063-0.152 0.125-0.194 0.073-0.044 0.153-0.06 0.229-0.04 0.08 0.02 0.145 0.063 0.188 0.131 0 0.005 1.295 1.993 1.961 3.011-0.608-0.28-1.572-0.974-2.475-2.695zm1.408-0.101c-0.039-0.066-0.063-0.131-0.063-0.197 0-0.02 0.003-0.039 0.005-0.059 0.037-0.197 0.218-0.326 0.425-0.295 0.088 0.018 0.178 0.07 0.229 0.142 0.002 0.003 1.658 2.202 2.451 3.255-0.687-0.241-1.855-0.915-3.047-2.846zm1.602-0.081c-0.002-0.002-0.002-0.003-0.004-0.003-0.055-0.074-0.081-0.159-0.081-0.257v-0.035c0.009-0.118 0.06-0.222 0.149-0.297 0.086-0.074 0.194-0.108 0.303-0.097 0.125 0.01 0.234 0.063 0.308 0.143 0.003 0.004 2.14 2.405 3.078 3.455-0.776-0.178-2.198-0.796-3.753-2.909zm2.046-0.103-0.002-0.003c-0.075-0.094-0.116-0.218-0.116-0.351v-0.003c0.012-0.276 0.238-0.483 0.525-0.474 0.135 0 0.261 0.057 0.342 0.15 0.01 0.007 2.575 2.664 3.641 3.766-0.852-0.134-2.508-0.71-4.39-3.085zm2.311 0.03c0-0.002-0.006-0.005-0.01-0.009-0.092-0.089-0.147-0.221-0.154-0.36-0.002-0.011-0.002-0.022-0.002-0.034 0-0.141 0.051-0.271 0.146-0.376 0.101-0.111 0.236-0.179 0.388-0.184 0.154-0.007 0.303 0.042 0.409 0.138 0.003 0.002 3.115 2.701 4.394 3.811-0.949-0.063-2.841-0.539-5.171-2.986zm2.444-0.422c-0.003 0-0.005-0.002-0.006-0.005-0.107-0.109-0.176-0.257-0.189-0.423v-0.023c0-0.324 0.273-0.617 0.603-0.635 0.181-0.006 0.349 0.049 0.467 0.158 0.005 0 3.485 3.016 4.898 4.241-1.053-0.065-3.172-0.581-5.773-3.313zm2.763-0.418c-0.088-0.096-0.195-0.251-0.207-0.463v-0.034c0-0.175 0.063-0.339 0.185-0.472 0.125-0.138 0.295-0.217 0.478-0.223 0.205-0.012 0.381 0.048 0.51 0.162 0.007 0.004 3.857 3.344 5.432 4.711-1.174-0.075-3.515-0.655-6.398-3.681zm2.856-0.506-0.003-0.002c-0.097-0.101-0.218-0.27-0.224-0.505 0-0.013-0.002-0.026-0.002-0.039 0-0.198 0.072-0.384 0.205-0.53 0.137-0.15 0.326-0.234 0.526-0.244 0.218-0.012 0.418 0.055 0.57 0.189 0.006 0.002 4.286 3.707 6.039 5.226-1.302-0.085-3.908-0.734-7.111-4.095z"/><path d="m104.08 87.098c-0.218 0.096-0.635 0.021-0.995-0.137 0.584-0.597 0.891-1.437 0.813-2.271-0.062-0.754-0.448-1.42-1.063-1.824-0.104-0.069-0.246-0.047-0.322 0.056-0.024 0.035-0.047 0.08-0.07 0.125-0.199-0.228-0.419-0.443-0.67-0.64-1.17-0.907-2.67-1.205-3.815-0.756l-0.092 0.035-0.039 0.092c-0.482 1.125-0.232 2.629 0.635 3.834 0.188 0.261 0.4 0.484 0.623 0.69-0.041 0.021-0.086 0.041-0.119 0.064-0.063 0.045-0.1 0.119-0.1 0.193 0 0.043 0.012 0.086 0.035 0.127 0.393 0.627 1.051 1.035 1.809 1.119 0.683 0.074 1.369-0.109 1.93-0.486 0.188 0.111 0.386 0.213 0.566 0.283 0.32 0.127 0.512 0.199 0.826 0.223 0.291 0.018 0.404-0.053 0.535-0.492 0.133-0.44-0.109-0.399-0.489-0.235zm-5.23-1.761c-0.519-0.717-0.791-1.545-0.791-2.307 0-0.34 0.074-0.658 0.186-0.955 0.977-0.332 2.229-0.07 3.236 0.711 0.307 0.236 0.563 0.508 0.781 0.793-0.024 0.115-0.047 0.234-0.063 0.359-0.339-0.43-0.717-0.783-1-0.877-0.12-0.039-0.253 0.023-0.296 0.139-0.117 0.291-0.176 0.596-0.176 0.898 0 0.26 0.119 0.502 0.203 0.752-0.532-0.197-1.099-0.281-1.644-0.082-0.096 0.037-0.155 0.127-0.155 0.225 0 0.023 0.004 0.047 0.01 0.07 0.088 0.285 0.43 0.67 0.848 1.02-0.127 0.014-0.248 0.033-0.366 0.055-0.28-0.227-0.546-0.485-0.773-0.801zm0.633 1.332c0.273-0.1 0.679-0.176 1.131-0.145 0.111 0.008 0.214-0.063 0.246-0.17 0.006-0.023 0.009-0.045 0.009-0.068 0-0.086-0.046-0.166-0.124-0.209-0.48-0.262-0.803-0.629-0.984-0.914 0.358-0.078 0.832-0.111 1.373 0.223 0.095 0.06 0.215 0.046 0.293-0.03 0.047-0.047 0.071-0.108 0.071-0.172 0-0.041-0.011-0.082-0.032-0.119-0.196-0.342-0.262-0.672-0.262-0.957 0-0.176 0.049-0.285 0.082-0.422 0.279 0.188 0.635 0.518 0.883 1.004 0.053 0.101 0.166 0.149 0.273 0.123 0.105-0.029 0.178-0.123 0.178-0.231 0-0.003-0.002-0.095-0.002-0.136 0-0.385 0.076-0.707 0.166-0.953 0.348 0.324 0.598 0.742 0.639 1.244 0.008 0.07 0.01 0.146 0.01 0.217 0 0.644-0.262 1.273-0.725 1.724-0.507 0.492-1.232 0.738-1.945 0.66-0.647-0.074-1.053-0.406-1.28-0.669z"/><path d="m71.864 87.098c-0.218 0.096-0.635 0.021-0.995-0.137 0.584-0.597 0.891-1.437 0.813-2.271-0.061-0.754-0.448-1.42-1.063-1.824-0.105-0.069-0.246-0.047-0.322 0.056-0.025 0.035-0.048 0.08-0.071 0.125-0.199-0.228-0.419-0.443-0.67-0.64-1.171-0.907-2.668-1.205-3.813-0.756l-0.092 0.035-0.039 0.092c-0.482 1.125-0.233 2.629 0.635 3.834 0.188 0.261 0.4 0.484 0.622 0.69-0.041 0.021-0.085 0.041-0.118 0.064-0.064 0.045-0.1 0.119-0.1 0.193 0 0.043 0.012 0.086 0.035 0.127 0.393 0.627 1.051 1.035 1.809 1.119 0.682 0.074 1.369-0.109 1.93-0.486 0.188 0.111 0.385 0.213 0.565 0.283 0.321 0.127 0.513 0.199 0.827 0.223 0.291 0.018 0.404-0.053 0.535-0.492 0.134-0.44-0.108-0.399-0.488-0.235zm-5.23-1.761c-0.518-0.717-0.791-1.545-0.791-2.307 0-0.34 0.074-0.658 0.186-0.955 0.977-0.332 2.229-0.07 3.236 0.711 0.307 0.236 0.563 0.508 0.781 0.793-0.024 0.115-0.046 0.234-0.063 0.359-0.339-0.43-0.717-0.783-1-0.877-0.12-0.039-0.253 0.023-0.296 0.139-0.117 0.291-0.176 0.596-0.176 0.898 0 0.26 0.119 0.502 0.203 0.752-0.532-0.197-1.098-0.281-1.643-0.082-0.096 0.037-0.156 0.127-0.156 0.225 0 0.023 0.004 0.047 0.011 0.07 0.087 0.285 0.429 0.67 0.847 1.02-0.127 0.014-0.248 0.033-0.366 0.055-0.279-0.227-0.546-0.485-0.773-0.801zm0.633 1.332c0.273-0.1 0.679-0.176 1.131-0.145 0.111 0.008 0.214-0.063 0.246-0.17 0.006-0.023 0.009-0.045 0.009-0.068 0-0.086-0.046-0.166-0.124-0.209-0.48-0.262-0.803-0.629-0.984-0.914 0.358-0.078 0.831-0.111 1.373 0.223 0.094 0.06 0.214 0.046 0.292-0.03 0.048-0.047 0.072-0.108 0.072-0.172 0-0.041-0.011-0.082-0.032-0.119-0.197-0.342-0.262-0.672-0.262-0.957 0-0.176 0.048-0.285 0.082-0.422 0.279 0.188 0.634 0.518 0.883 1.004 0.052 0.101 0.165 0.149 0.273 0.123 0.105-0.029 0.178-0.123 0.178-0.231 0-0.003-0.002-0.095-0.002-0.136 0-0.385 0.076-0.707 0.166-0.953 0.347 0.324 0.598 0.742 0.638 1.244 0.008 0.07 0.011 0.146 0.011 0.217 0 0.644-0.263 1.273-0.726 1.724-0.506 0.492-1.232 0.738-1.944 0.66-0.647-0.074-1.053-0.406-1.28-0.669z"/><path d="m61.117 87.098c-0.219 0.096-0.635 0.021-0.996-0.137 0.585-0.597 0.893-1.437 0.814-2.271-0.062-0.754-0.449-1.42-1.063-1.824-0.105-0.069-0.245-0.047-0.321 0.056-0.026 0.035-0.049 0.08-0.072 0.125-0.199-0.228-0.418-0.443-0.67-0.64-1.172-0.907-2.668-1.205-3.811-0.756l-0.092 0.035-0.039 0.092c-0.483 1.125-0.234 2.629 0.635 3.834 0.188 0.261 0.399 0.484 0.621 0.69-0.041 0.021-0.086 0.041-0.117 0.064-0.065 0.045-0.1 0.119-0.1 0.193 0 0.043 0.011 0.086 0.035 0.127 0.392 0.627 1.051 1.035 1.807 1.119 0.684 0.074 1.371-0.109 1.932-0.486 0.188 0.111 0.385 0.213 0.564 0.283 0.322 0.127 0.514 0.199 0.826 0.223 0.293 0.018 0.406-0.053 0.537-0.492 0.131-0.44-0.109-0.399-0.49-0.235zm-5.23-1.761c-0.517-0.717-0.792-1.545-0.792-2.307 0-0.34 0.074-0.658 0.188-0.955 0.977-0.332 2.229-0.07 3.235 0.711 0.306 0.236 0.563 0.508 0.782 0.793-0.025 0.115-0.047 0.234-0.064 0.359-0.34-0.43-0.717-0.783-1-0.877-0.119-0.039-0.252 0.023-0.296 0.139-0.116 0.291-0.175 0.596-0.175 0.898 0 0.26 0.118 0.502 0.203 0.752-0.533-0.197-1.098-0.281-1.644-0.082-0.095 0.037-0.157 0.127-0.157 0.225 0 0.023 0.004 0.047 0.012 0.07 0.088 0.285 0.429 0.67 0.848 1.02-0.127 0.014-0.249 0.033-0.367 0.055-0.28-0.227-0.545-0.485-0.773-0.801zm0.632 1.332c0.274-0.1 0.68-0.176 1.132-0.145 0.112 0.008 0.214-0.063 0.245-0.17 0.007-0.023 0.01-0.045 0.01-0.068 0-0.086-0.045-0.166-0.125-0.209-0.479-0.262-0.802-0.629-0.982-0.914 0.357-0.078 0.83-0.111 1.373 0.223 0.092 0.06 0.213 0.046 0.291-0.03 0.049-0.047 0.072-0.108 0.072-0.172 0-0.041-0.01-0.082-0.031-0.119-0.197-0.342-0.263-0.672-0.263-0.957 0-0.176 0.048-0.285 0.083-0.422 0.277 0.188 0.633 0.518 0.883 1.004 0.051 0.101 0.164 0.149 0.272 0.123 0.106-0.029 0.179-0.123 0.179-0.231 0-0.003-0.003-0.095-0.003-0.136 0-0.385 0.075-0.707 0.166-0.953 0.347 0.324 0.599 0.742 0.638 1.244 0.008 0.07 0.011 0.146 0.011 0.217 0 0.644-0.263 1.273-0.726 1.724-0.506 0.492-1.232 0.738-1.943 0.66-0.647-0.074-1.055-0.406-1.282-0.669z"/><path d="m82.366 87.098c-0.218 0.096-0.635 0.021-0.995-0.137 0.584-0.597 0.891-1.437 0.813-2.271-0.062-0.754-0.448-1.42-1.063-1.824-0.104-0.069-0.246-0.047-0.322 0.056-0.024 0.035-0.047 0.08-0.07 0.125-0.199-0.228-0.419-0.443-0.67-0.64-1.171-0.907-2.668-1.205-3.812-0.756l-0.092 0.035-0.039 0.092c-0.482 1.125-0.233 2.629 0.635 3.834 0.188 0.261 0.4 0.484 0.622 0.69-0.041 0.021-0.085 0.041-0.118 0.064-0.064 0.045-0.1 0.119-0.1 0.193 0 0.043 0.012 0.086 0.035 0.127 0.393 0.627 1.051 1.035 1.809 1.119 0.682 0.074 1.369-0.109 1.929-0.486 0.188 0.111 0.386 0.213 0.565 0.283 0.321 0.127 0.513 0.199 0.827 0.223 0.291 0.018 0.404-0.053 0.535-0.492 0.133-0.44-0.109-0.399-0.489-0.235zm-5.23-1.761c-0.518-0.717-0.791-1.545-0.791-2.307 0-0.34 0.074-0.658 0.186-0.955 0.977-0.332 2.229-0.07 3.236 0.711 0.307 0.236 0.563 0.508 0.781 0.793-0.024 0.115-0.047 0.234-0.063 0.359-0.339-0.43-0.717-0.783-1-0.877-0.12-0.039-0.253 0.023-0.296 0.139-0.117 0.291-0.176 0.596-0.176 0.898 0 0.26 0.119 0.502 0.203 0.752-0.532-0.197-1.098-0.281-1.643-0.082-0.096 0.037-0.156 0.127-0.156 0.225 0 0.023 0.004 0.047 0.011 0.07 0.087 0.285 0.429 0.67 0.847 1.02-0.127 0.014-0.248 0.033-0.366 0.055-0.28-0.227-0.546-0.485-0.773-0.801zm0.633 1.332c0.273-0.1 0.679-0.176 1.131-0.145 0.111 0.008 0.214-0.063 0.246-0.17 0.006-0.023 0.009-0.045 0.009-0.068 0-0.086-0.046-0.166-0.124-0.209-0.48-0.262-0.803-0.629-0.984-0.914 0.358-0.078 0.831-0.111 1.373 0.223 0.094 0.06 0.214 0.046 0.292-0.03 0.048-0.047 0.072-0.108 0.072-0.172 0-0.041-0.011-0.082-0.032-0.119-0.197-0.342-0.262-0.672-0.262-0.957 0-0.176 0.048-0.285 0.082-0.422 0.279 0.188 0.635 0.518 0.883 1.004 0.053 0.101 0.166 0.149 0.273 0.123 0.105-0.029 0.178-0.123 0.178-0.231 0-0.003-0.002-0.095-0.002-0.136 0-0.385 0.076-0.707 0.166-0.953 0.348 0.324 0.598 0.742 0.639 1.244 0.008 0.07 0.01 0.146 0.01 0.217 0 0.644-0.262 1.273-0.726 1.724-0.506 0.492-1.232 0.738-1.944 0.66-0.647-0.074-1.053-0.406-1.28-0.669z"/><path d="m82.366 109.84c-0.218 0.098-0.635 0.021-0.995-0.136 0.584-0.598 0.891-1.438 0.813-2.27-0.062-0.757-0.448-1.423-1.063-1.826-0.104-0.069-0.246-0.045-0.322 0.056-0.024 0.034-0.047 0.081-0.07 0.125-0.199-0.228-0.419-0.443-0.67-0.638-1.171-0.91-2.668-1.207-3.812-0.758l-0.092 0.036-0.039 0.091c-0.482 1.125-0.233 2.629 0.635 3.834 0.188 0.26 0.4 0.483 0.622 0.69-0.041 0.021-0.085 0.041-0.118 0.064-0.064 0.047-0.1 0.119-0.1 0.193 0 0.043 0.012 0.088 0.035 0.127 0.393 0.629 1.051 1.037 1.809 1.119 0.682 0.076 1.369-0.109 1.929-0.486 0.188 0.111 0.386 0.213 0.565 0.283 0.321 0.127 0.513 0.201 0.827 0.223 0.291 0.018 0.404-0.053 0.535-0.492 0.133-0.438-0.109-0.397-0.489-0.235zm-5.23-1.761c-0.518-0.717-0.791-1.545-0.791-2.305 0-0.342 0.074-0.658 0.186-0.957 0.977-0.332 2.229-0.07 3.236 0.711 0.307 0.236 0.563 0.508 0.781 0.793-0.024 0.115-0.047 0.234-0.063 0.359-0.339-0.43-0.717-0.783-1-0.875-0.12-0.039-0.253 0.021-0.296 0.137-0.117 0.291-0.176 0.596-0.176 0.898 0 0.26 0.119 0.502 0.203 0.752-0.532-0.197-1.098-0.281-1.643-0.08-0.096 0.035-0.156 0.125-0.156 0.223 0 0.023 0.004 0.047 0.011 0.07 0.087 0.285 0.429 0.67 0.847 1.02-0.127 0.014-0.248 0.033-0.366 0.057-0.28-0.229-0.546-0.487-0.773-0.803zm0.633 1.332c0.273-0.1 0.679-0.176 1.131-0.143 0.111 0.008 0.214-0.064 0.246-0.172 0.006-0.021 0.009-0.045 0.009-0.066 0-0.086-0.046-0.168-0.124-0.211-0.48-0.262-0.803-0.629-0.984-0.914 0.358-0.078 0.831-0.111 1.373 0.223 0.094 0.06 0.214 0.045 0.292-0.031 0.048-0.047 0.072-0.106 0.072-0.172 0-0.041-0.011-0.082-0.032-0.119-0.197-0.342-0.262-0.67-0.262-0.954 0-0.179 0.048-0.287 0.082-0.425 0.279 0.189 0.635 0.519 0.883 1.004 0.053 0.101 0.166 0.15 0.273 0.123 0.105-0.026 0.178-0.123 0.178-0.229 0-0.004-0.002-0.096-0.002-0.137 0-0.386 0.076-0.707 0.166-0.953 0.348 0.324 0.598 0.744 0.639 1.244 0.008 0.071 0.01 0.145 0.01 0.217 0 0.644-0.262 1.272-0.726 1.724-0.506 0.491-1.232 0.737-1.944 0.659-0.647-0.072-1.053-0.405-1.28-0.668z"/><path d="m82.366 121.21c-0.218 0.097-0.635 0.021-0.995-0.137 0.584-0.596 0.891-1.436 0.813-2.27-0.062-0.754-0.448-1.42-1.063-1.826-0.104-0.068-0.246-0.045-0.322 0.057-0.024 0.033-0.047 0.08-0.07 0.125-0.199-0.229-0.419-0.445-0.67-0.639-1.171-0.908-2.668-1.205-3.812-0.756l-0.092 0.035-0.039 0.092c-0.482 1.123-0.233 2.629 0.635 3.834 0.188 0.26 0.4 0.484 0.622 0.691-0.041 0.021-0.085 0.039-0.118 0.063-0.064 0.047-0.1 0.121-0.1 0.195 0 0.043 0.012 0.086 0.035 0.125 0.393 0.629 1.051 1.037 1.809 1.121 0.682 0.073 1.369-0.109 1.929-0.486 0.188 0.111 0.386 0.213 0.565 0.283 0.321 0.127 0.513 0.199 0.827 0.223 0.291 0.018 0.404-0.053 0.535-0.492 0.133-0.443-0.109-0.402-0.489-0.238zm-5.23-1.762c-0.518-0.717-0.791-1.545-0.791-2.307 0-0.34 0.074-0.658 0.186-0.955 0.977-0.332 2.229-0.07 3.236 0.711 0.307 0.236 0.563 0.506 0.781 0.791-0.024 0.117-0.047 0.236-0.063 0.361-0.339-0.431-0.717-0.783-1-0.877-0.12-0.039-0.253 0.022-0.296 0.139-0.117 0.291-0.176 0.596-0.176 0.898 0 0.26 0.119 0.502 0.203 0.75-0.532-0.195-1.098-0.281-1.643-0.08-0.096 0.035-0.156 0.127-0.156 0.225 0 0.023 0.004 0.047 0.011 0.07 0.087 0.285 0.429 0.67 0.847 1.02-0.127 0.014-0.248 0.033-0.366 0.055-0.28-0.227-0.546-0.487-0.773-0.801zm0.633 1.332c0.273-0.1 0.679-0.176 1.131-0.145 0.111 0.008 0.214-0.063 0.246-0.17 0.006-0.023 0.009-0.045 0.009-0.068 0-0.086-0.046-0.166-0.124-0.209-0.48-0.262-0.803-0.629-0.984-0.916 0.358-0.078 0.831-0.109 1.373 0.225 0.094 0.057 0.214 0.045 0.292-0.031 0.048-0.047 0.072-0.108 0.072-0.172 0-0.041-0.011-0.082-0.032-0.119-0.197-0.344-0.262-0.672-0.262-0.957 0-0.176 0.048-0.284 0.082-0.422 0.279 0.188 0.635 0.519 0.883 1.004 0.053 0.101 0.166 0.15 0.273 0.121 0.105-0.026 0.178-0.123 0.178-0.229 0-0.004-0.002-0.094-0.002-0.138 0-0.383 0.076-0.704 0.166-0.95 0.348 0.323 0.598 0.741 0.639 1.241 0.008 0.072 0.01 0.146 0.01 0.218 0 0.646-0.262 1.274-0.726 1.726-0.506 0.489-1.232 0.737-1.944 0.657-0.647-0.072-1.053-0.402-1.28-0.666z"/><path d="m82.366 98.499c-0.218 0.096-0.635 0.021-0.995-0.137 0.584-0.596 0.891-1.436 0.813-2.27-0.062-0.754-0.448-1.42-1.063-1.826-0.104-0.068-0.246-0.045-0.322 0.057-0.024 0.033-0.047 0.08-0.07 0.125-0.199-0.229-0.419-0.445-0.67-0.639-1.171-0.908-2.668-1.205-3.812-0.756l-0.092 0.035-0.039 0.092c-0.482 1.123-0.233 2.629 0.635 3.834 0.188 0.26 0.4 0.484 0.622 0.691-0.041 0.021-0.085 0.038-0.118 0.063-0.064 0.047-0.1 0.121-0.1 0.195 0 0.043 0.012 0.086 0.035 0.125 0.393 0.629 1.051 1.037 1.809 1.121 0.682 0.073 1.369-0.109 1.929-0.486 0.188 0.111 0.386 0.213 0.565 0.283 0.321 0.127 0.513 0.199 0.827 0.223 0.291 0.018 0.404-0.053 0.535-0.492 0.133-0.443-0.109-0.402-0.489-0.238zm-5.23-1.762c-0.518-0.717-0.791-1.545-0.791-2.307 0-0.34 0.074-0.658 0.186-0.955 0.977-0.332 2.229-0.07 3.236 0.711 0.307 0.236 0.563 0.506 0.781 0.791-0.024 0.117-0.047 0.236-0.063 0.361-0.339-0.431-0.717-0.783-1-0.877-0.12-0.039-0.253 0.022-0.296 0.139-0.117 0.291-0.176 0.596-0.176 0.898 0 0.26 0.119 0.502 0.203 0.75-0.532-0.195-1.098-0.281-1.643-0.08-0.096 0.034-0.156 0.127-0.156 0.225 0 0.023 0.004 0.047 0.011 0.07 0.087 0.285 0.429 0.67 0.847 1.02-0.127 0.014-0.248 0.033-0.366 0.055-0.28-0.227-0.546-0.487-0.773-0.801zm0.633 1.332c0.273-0.1 0.679-0.176 1.131-0.145 0.111 0.008 0.214-0.063 0.246-0.17 0.006-0.023 0.009-0.045 0.009-0.068 0-0.086-0.046-0.166-0.124-0.209-0.48-0.262-0.803-0.629-0.984-0.916 0.358-0.078 0.831-0.109 1.373 0.225 0.094 0.057 0.214 0.045 0.292-0.031 0.048-0.047 0.072-0.108 0.072-0.172 0-0.041-0.011-0.082-0.032-0.119-0.197-0.344-0.262-0.672-0.262-0.957 0-0.176 0.048-0.284 0.082-0.422 0.279 0.188 0.635 0.519 0.883 1.004 0.053 0.101 0.166 0.15 0.273 0.121 0.105-0.026 0.178-0.123 0.178-0.229 0-0.004-0.002-0.095-0.002-0.138 0-0.383 0.076-0.705 0.166-0.95 0.348 0.323 0.598 0.741 0.639 1.241 0.008 0.072 0.01 0.146 0.01 0.218 0 0.646-0.262 1.274-0.726 1.725-0.506 0.49-1.232 0.738-1.944 0.658-0.647-0.072-1.053-0.402-1.28-0.666z"/><path d="m82.366 75.134c-0.218 0.098-0.635 0.022-0.995-0.135 0.584-0.598 0.891-1.438 0.813-2.271-0.062-0.754-0.448-1.421-1.063-1.825-0.104-0.069-0.246-0.045-0.322 0.055-0.024 0.035-0.047 0.081-0.07 0.125-0.199-0.227-0.419-0.443-0.67-0.638-1.171-0.909-2.668-1.206-3.812-0.757l-0.092 0.037-0.039 0.09c-0.482 1.125-0.233 2.629 0.635 3.835 0.188 0.259 0.4 0.483 0.622 0.69-0.041 0.021-0.085 0.041-0.118 0.064-0.064 0.047-0.1 0.119-0.1 0.193 0 0.043 0.012 0.087 0.035 0.127 0.393 0.628 1.051 1.036 1.809 1.119 0.682 0.075 1.369-0.109 1.929-0.485 0.188 0.11 0.386 0.212 0.565 0.282 0.321 0.127 0.513 0.201 0.827 0.223 0.291 0.018 0.404-0.052 0.535-0.492 0.133-0.44-0.109-0.399-0.489-0.237zm-5.23-1.762c-0.518-0.717-0.791-1.545-0.791-2.306 0-0.34 0.074-0.658 0.186-0.956 0.977-0.332 2.229-0.07 3.236 0.711 0.307 0.236 0.563 0.508 0.781 0.793-0.024 0.115-0.047 0.235-0.063 0.36-0.339-0.431-0.717-0.784-1-0.876-0.12-0.04-0.253 0.021-0.296 0.137-0.117 0.291-0.176 0.596-0.176 0.898 0 0.26 0.119 0.503 0.203 0.752-0.532-0.196-1.098-0.281-1.643-0.08-0.096 0.035-0.156 0.125-0.156 0.224 0 0.022 0.004 0.046 0.011 0.069 0.087 0.286 0.429 0.67 0.847 1.02-0.127 0.014-0.248 0.033-0.366 0.057-0.28-0.229-0.546-0.486-0.773-0.803zm0.633 1.332c0.273-0.099 0.679-0.176 1.131-0.143 0.111 0.008 0.214-0.064 0.246-0.172 0.006-0.021 0.009-0.045 0.009-0.066 0-0.086-0.046-0.168-0.124-0.211-0.48-0.262-0.803-0.629-0.984-0.914 0.358-0.078 0.831-0.11 1.373 0.224 0.094 0.058 0.214 0.044 0.292-0.032 0.048-0.046 0.072-0.107 0.072-0.171 0-0.041-0.011-0.083-0.032-0.12-0.197-0.342-0.262-0.67-0.262-0.956 0-0.177 0.048-0.286 0.082-0.422 0.279 0.188 0.635 0.517 0.883 1.004 0.053 0.1 0.166 0.15 0.273 0.122 0.105-0.027 0.178-0.123 0.178-0.23 0-0.004-0.002-0.095-0.002-0.137 0-0.384 0.076-0.707 0.166-0.953 0.348 0.324 0.598 0.744 0.639 1.244 0.008 0.072 0.01 0.145 0.01 0.217 0 0.643-0.262 1.274-0.726 1.724-0.506 0.491-1.232 0.737-1.944 0.659-0.647-0.071-1.053-0.403-1.28-0.667z"/><path d="m82.366 63.289c-0.218 0.097-0.635 0.021-0.995-0.136 0.584-0.598 0.891-1.438 0.813-2.27-0.062-0.755-0.448-1.422-1.063-1.826-0.104-0.069-0.246-0.045-0.322 0.055-0.024 0.035-0.047 0.082-0.07 0.125-0.199-0.227-0.419-0.443-0.67-0.637-1.171-0.909-2.668-1.207-3.812-0.757l-0.092 0.036-0.039 0.091c-0.482 1.124-0.233 2.629 0.635 3.835 0.188 0.258 0.4 0.483 0.622 0.689-0.041 0.021-0.085 0.04-0.118 0.063-0.064 0.047-0.1 0.12-0.1 0.194 0 0.043 0.012 0.087 0.035 0.126 0.393 0.629 1.051 1.037 1.809 1.119 0.682 0.076 1.369-0.109 1.929-0.484 0.188 0.11 0.386 0.212 0.565 0.281 0.321 0.127 0.513 0.201 0.827 0.223 0.291 0.018 0.404-0.051 0.535-0.491 0.133-0.44-0.109-0.399-0.489-0.236zm-5.23-1.762c-0.518-0.717-0.791-1.545-0.791-2.306 0-0.34 0.074-0.658 0.186-0.956 0.977-0.332 2.229-0.071 3.236 0.71 0.307 0.236 0.563 0.508 0.781 0.793-0.024 0.116-0.047 0.236-0.063 0.36-0.339-0.431-0.717-0.784-1-0.876-0.12-0.039-0.253 0.021-0.296 0.137-0.117 0.291-0.176 0.596-0.176 0.899 0 0.26 0.119 0.503 0.203 0.751-0.532-0.196-1.098-0.281-1.643-0.08-0.096 0.035-0.156 0.126-0.156 0.225 0 0.022 0.004 0.046 0.011 0.068 0.087 0.286 0.429 0.671 0.847 1.021-0.127 0.014-0.248 0.033-0.366 0.056-0.28-0.227-0.546-0.486-0.773-0.802zm0.633 1.332c0.273-0.099 0.679-0.176 1.131-0.144 0.111 0.008 0.214-0.064 0.246-0.172 0.006-0.021 0.009-0.045 0.009-0.066 0-0.086-0.046-0.168-0.124-0.21-0.48-0.263-0.803-0.63-0.984-0.915 0.358-0.078 0.831-0.11 1.373 0.224 0.094 0.058 0.214 0.045 0.292-0.032 0.048-0.045 0.072-0.107 0.072-0.171 0-0.04-0.011-0.082-0.032-0.119-0.197-0.343-0.262-0.671-0.262-0.956 0-0.178 0.048-0.286 0.082-0.422 0.279 0.188 0.635 0.517 0.883 1.004 0.053 0.1 0.166 0.149 0.273 0.121 0.105-0.027 0.178-0.123 0.178-0.23 0-0.004-0.002-0.095-0.002-0.137 0-0.384 0.076-0.706 0.166-0.953 0.348 0.324 0.598 0.744 0.639 1.244 0.008 0.072 0.01 0.145 0.01 0.217 0 0.644-0.262 1.275-0.726 1.724-0.506 0.491-1.232 0.737-1.944 0.659-0.647-0.071-1.053-0.403-1.28-0.666z"/><path d="m93.351 87.098c-0.217 0.096-0.635 0.021-0.994-0.137 0.584-0.597 0.891-1.437 0.813-2.271-0.061-0.754-0.449-1.42-1.063-1.824-0.105-0.069-0.246-0.047-0.322 0.056-0.025 0.035-0.049 0.08-0.07 0.125-0.201-0.228-0.42-0.443-0.67-0.64-1.172-0.907-2.668-1.205-3.813-0.756l-0.092 0.035-0.039 0.092c-0.482 1.125-0.233 2.629 0.635 3.834 0.188 0.261 0.4 0.484 0.622 0.69-0.041 0.021-0.085 0.041-0.118 0.064-0.064 0.045-0.1 0.119-0.1 0.193 0 0.043 0.012 0.086 0.035 0.127 0.393 0.627 1.051 1.035 1.808 1.119 0.683 0.074 1.37-0.109 1.931-0.486 0.188 0.111 0.385 0.213 0.564 0.283 0.322 0.127 0.514 0.199 0.826 0.223 0.293 0.018 0.406-0.053 0.537-0.492 0.132-0.44-0.109-0.399-0.49-0.235zm-5.228-1.761c-0.518-0.717-0.791-1.545-0.791-2.307 0-0.34 0.073-0.658 0.187-0.955 0.978-0.332 2.229-0.07 3.235 0.711 0.307 0.236 0.563 0.508 0.781 0.793-0.023 0.115-0.046 0.234-0.063 0.359-0.34-0.43-0.719-0.783-1-0.877-0.12-0.039-0.254 0.023-0.297 0.139-0.116 0.291-0.176 0.596-0.176 0.898 0 0.26 0.119 0.502 0.203 0.752-0.531-0.197-1.098-0.281-1.643-0.082-0.096 0.037-0.156 0.127-0.156 0.225 0 0.023 0.003 0.047 0.012 0.07 0.086 0.285 0.428 0.67 0.846 1.02-0.127 0.014-0.248 0.033-0.365 0.055-0.28-0.227-0.547-0.485-0.773-0.801zm0.632 1.332c0.272-0.1 0.679-0.176 1.131-0.145 0.111 0.008 0.214-0.063 0.244-0.17 0.008-0.023 0.01-0.045 0.01-0.068 0-0.086-0.045-0.166-0.123-0.209-0.48-0.262-0.803-0.629-0.984-0.914 0.358-0.078 0.83-0.111 1.373 0.223 0.094 0.06 0.215 0.046 0.291-0.03 0.049-0.047 0.073-0.108 0.073-0.172 0-0.041-0.011-0.082-0.032-0.119-0.197-0.342-0.262-0.672-0.262-0.957 0-0.176 0.048-0.285 0.082-0.422 0.277 0.188 0.634 0.518 0.883 1.004 0.052 0.101 0.165 0.149 0.273 0.123 0.104-0.029 0.178-0.123 0.178-0.231 0-0.003-0.002-0.095-0.002-0.136 0-0.385 0.076-0.707 0.166-0.953 0.347 0.324 0.598 0.742 0.638 1.244 0.007 0.07 0.011 0.146 0.011 0.217 0 0.644-0.264 1.273-0.727 1.724-0.505 0.492-1.23 0.738-1.943 0.66-0.647-0.074-1.054-0.406-1.28-0.669z"/></g></g></svg>
